# This file uses centimeters as units for non-parametric coordinates.

mtllib Room_CarpetMesh.mtl
g default
v -8.031785 0.018151 10.008373
v -7.173106 0.018632 9.993018
v -6.826414 0.018195 10.007694
v -6.605991 0.020133 9.945130
v -5.892268 0.018143 9.943102
v -5.486851 0.018143 9.989391
v -5.041628 0.009044 9.989630
v -4.820433 0.033210 10.006198
v -3.900271 0.022487 10.009348
v -7.963021 0.018176 9.654696
v -7.121367 0.033409 9.657455
v -6.751007 0.058735 9.652781
v -6.592575 0.026344 9.604284
v -5.888744 0.020293 9.604221
v -5.493554 0.034726 9.635637
v -5.104014 -0.006256 9.639979
v -4.894876 0.052843 9.660606
v -4.091452 0.032099 9.655243
v -7.881345 0.018144 9.299942
v -7.106383 0.051623 9.301944
v -6.720629 0.098937 9.304720
v -6.530247 0.032358 9.303102
v -5.900950 0.024038 9.303423
v -5.534575 0.065443 9.304588
v -5.113753 -0.005867 9.306583
v -4.906656 0.036961 9.306948
v -4.178321 0.015616 9.296459
v -7.949124 0.018141 9.122318
v -7.113930 0.047420 9.124164
v -6.690285 0.086203 9.124680
v -6.528611 0.039082 9.125627
v -5.897799 0.023147 9.127021
v -5.520603 0.058832 9.128326
v -5.111486 -0.007228 9.129655
v -4.924565 0.040196 9.128594
v -4.176248 0.021941 9.122980
v -7.956475 0.018141 8.412434
v -7.131033 0.086436 8.377850
v -6.739326 0.019906 8.382869
v -6.563123 0.019269 8.414740
v -5.875753 0.023985 8.425164
v -5.454714 0.041637 8.485305
v -5.071975 0.014815 8.479947
v -4.870788 0.105816 8.421788
v -4.083474 0.064220 8.436001
v -8.019619 0.018141 8.234821
v -7.179192 0.073598 8.211909
v -6.744914 0.018347 8.212500
v -6.564683 0.018147 8.240786
v -5.874576 0.020828 8.258273
v -5.444600 0.034055 8.348422
v -5.072019 0.019623 8.316883
v -4.871135 0.036863 8.243778
v -3.981591 0.046333 8.262294
vt 0.010097 0.813637
vt 0.027910 0.647128
vt 0.030919 0.579427
vt 0.046767 0.537476
vt 0.059068 0.398148
vt 0.057007 0.318374
vt 0.064562 0.231569
vt 0.064989 0.187956
vt 0.078961 0.009183
vt 0.080005 0.806269
vt 0.093950 0.642864
vt 0.101457 0.570853
vt 0.113121 0.540026
vt 0.124961 0.403222
vt 0.125646 0.325908
vt 0.131326 0.249896
vt 0.130895 0.207601
vt 0.144721 0.051934
vt 0.150271 0.796535
vt 0.163328 0.646187
vt 0.169375 0.571360
vt 0.172683 0.532609
vt 0.183186 0.410804
vt 0.189257 0.339589
vt 0.195810 0.256997
vt 0.199311 0.215902
vt 0.213157 0.074499
vt 0.183574 0.812687
vt 0.197803 0.650696
vt 0.204510 0.568191
vt 0.207230 0.535541
vt 0.217491 0.413224
vt 0.223578 0.339820
vt 0.230117 0.259572
vt 0.233689 0.222204
vt 0.246881 0.076940
vt 0.321397 0.826552
vt 0.342499 0.666563
vt 0.347916 0.589359
vt 0.344580 0.554575
vt 0.354031 0.420668
vt 0.349392 0.337840
vt 0.356793 0.263752
vt 0.371193 0.222773
vt 0.382155 0.070642
vt 0.354774 0.841881
vt 0.373941 0.678699
vt 0.380909 0.593194
vt 0.378302 0.557785
vt 0.386413 0.423222
vt 0.376186 0.338103
vt 0.388799 0.265843
vt 0.407581 0.227105
vt 0.417667 0.053549
vn -0.009092 0.999761 0.019881
vn -0.016072 0.999295 0.033936
vn -0.034503 0.998675 0.038195
vn -0.018143 0.999624 0.020567
vn -0.001865 0.997182 0.075004
vn 0.010902 0.996677 0.080724
vn 0.029773 0.999133 0.029103
vn 0.055562 0.997886 0.033703
vn -0.004272 0.999829 0.017997
vn -0.013012 0.999590 0.025523
vn 0.022853 0.999686 0.010302
vn 0.033018 0.999067 0.027851
vn -0.041887 0.999004 0.015381
vn -0.006459 0.999893 0.013115
vn -0.014014 0.999241 0.036354
vn -0.029962 0.999548 -0.002283
vn 0.018287 0.999226 0.034821
vn 0.021512 0.999762 0.003676
vn -0.055294 0.998290 0.018944
vn -0.033242 0.999366 0.012717
vn 0.019732 0.998920 0.042078
vn 0.070078 0.997153 0.027835
vn -0.022384 0.999516 0.021597
vn 0.029753 0.999264 0.024219
vn 0.019458 0.999754 0.010662
vn -0.028092 0.999404 -0.020074
vn 0.026988 0.999277 -0.026794
vn -0.033360 0.999429 0.005462
vn -0.055177 0.998213 0.022952
vn 0.063600 0.997409 -0.033620
vn 0.045806 0.998814 -0.016507
vn -0.019659 0.999739 -0.011634
vn 0.023445 0.999704 -0.006493
vn -0.017263 0.999721 0.016119
vn -0.042301 0.997130 0.062783
vn 0.036341 0.996799 0.071216
vn -0.019795 0.999798 0.003350
vn -0.061688 0.997918 0.018801
vn 0.069193 0.997007 -0.034479
vn 0.032753 0.999188 -0.023476
vn -0.016870 0.999730 -0.016003
vn 0.022725 0.999728 -0.005321
vn -0.067226 0.997706 0.007932
vn -0.026499 0.999617 0.008040
vn 0.034333 0.999363 -0.009738
vn -0.018167 0.999479 -0.026679
vn -0.074526 0.997133 -0.013117
vn 0.107419 0.992958 -0.049958
vn -0.003117 0.999929 -0.011482
vn -0.013111 0.999709 -0.020276
vn 0.009572 0.999693 -0.022844
vn -0.113534 0.989831 -0.085706
vn -0.032229 0.973706 -0.225517
vn 0.023178 0.972122 -0.233326
s 1
g pPlane3
usemtl lambert2SG
f 1/1/1 2/2/2 11/11/3 10/10/4
f 2/2/2 3/3/5 12/12/6 11/11/3
f 3/3/5 4/4/7 13/13/8 12/12/6
f 4/4/7 5/5/9 14/14/10 13/13/8
f 5/5/9 6/6/11 15/15/12 14/14/10
f 6/6/11 7/7/13 16/16/14 15/15/12
f 7/7/13 8/8/15 17/17/16 16/16/14
f 8/8/15 9/9/17 18/18/18 17/17/16
f 10/10/4 11/11/3 20/20/19 19/19/20
f 11/11/3 12/12/6 21/21/21 20/20/19
f 12/12/6 13/13/8 22/22/22 21/21/21
f 13/13/8 14/14/10 23/23/23 22/22/22
f 14/14/10 15/15/12 24/24/24 23/23/23
f 15/15/12 16/16/14 25/25/25 24/24/24
f 16/16/14 17/17/16 26/26/26 25/25/25
f 17/17/16 18/18/18 27/27/27 26/26/26
f 19/19/20 20/20/19 29/29/28 28/28/29
f 20/20/19 21/21/21 30/30/30 29/29/28
f 21/21/21 22/22/22 31/31/31 30/30/30
f 22/22/22 23/23/23 32/32/32 31/31/31
f 23/23/23 24/24/24 33/33/33 32/32/32
f 24/24/24 25/25/25 34/34/34 33/33/33
f 25/25/25 26/26/26 35/35/35 34/34/34
f 26/26/26 27/27/27 36/36/36 35/35/35
f 28/28/29 29/29/28 38/38/37 37/37/38
f 29/29/28 30/30/30 39/39/39 38/38/37
f 30/30/30 31/31/31 40/40/40 39/39/39
f 31/31/31 32/32/32 41/41/41 40/40/40
f 32/32/32 33/33/33 42/42/42 41/41/41
f 33/33/33 34/34/34 43/43/43 42/42/42
f 34/34/34 35/35/35 44/44/44 43/43/43
f 35/35/35 36/36/36 45/45/45 44/44/44
f 37/37/38 38/38/37 47/47/46 46/46/47
f 38/38/37 39/39/39 48/48/48 47/47/46
f 39/39/39 40/40/40 49/49/49 48/48/48
f 40/40/40 41/41/41 50/50/50 49/49/49
f 41/41/41 42/42/42 51/51/51 50/50/50
f 42/42/42 43/43/43 52/52/52 51/51/51
f 43/43/43 44/44/44 53/53/53 52/52/52
f 44/44/44 45/45/45 54/54/54 53/53/53
