# This file uses centimeters as units for non-parametric coordinates.

mtllib Room_IronMaiden.mtl
g default
v 6.291281 -0.009080 0.999408
v 6.255860 -0.009080 0.973673
v 6.212076 -0.009080 0.973673
v 6.176655 -0.009080 0.999408
v 6.163125 -0.009080 1.041049
v 6.176655 -0.009080 1.082689
v 6.212076 -0.009080 1.108425
v 6.255860 -0.009080 1.108425
v 6.291281 -0.009080 1.082689
v 6.304811 -0.009080 1.041049
v 6.291281 0.189723 0.999408
v 6.255860 0.189723 0.973673
v 6.212076 0.189723 0.973673
v 6.176655 0.189723 0.999408
v 6.163125 0.189723 1.041049
v 6.176655 0.189723 1.082689
v 6.212076 0.189723 1.108425
v 6.255860 0.189723 1.108425
v 6.291281 0.189723 1.082689
v 6.304811 0.189723 1.041049
v 5.644531 -0.009080 0.994281
v 5.609110 -0.009080 0.968546
v 5.565326 -0.009080 0.968546
v 5.529905 -0.009080 0.994281
v 5.516375 -0.009080 1.035922
v 5.529905 -0.009080 1.077563
v 5.565326 -0.009080 1.103298
v 5.609110 -0.009080 1.103298
v 5.644531 -0.009080 1.077563
v 5.658062 -0.009080 1.035922
v 5.644531 0.189723 0.994281
v 5.609110 0.189723 0.968546
v 5.565326 0.189723 0.968546
v 5.529905 0.189723 0.994281
v 5.516375 0.189723 1.035922
v 5.529905 0.189723 1.077563
v 5.565326 0.189723 1.103298
v 5.609110 0.189723 1.103298
v 5.644531 0.189723 1.077563
v 5.658062 0.189723 1.035922
v 6.280694 -0.009080 2.335019
v 6.245273 -0.009080 2.309283
v 6.201489 -0.009080 2.309283
v 6.166068 -0.009080 2.335019
v 6.152537 -0.009080 2.376660
v 6.166068 -0.009080 2.418300
v 6.201489 -0.009080 2.444036
v 6.245273 -0.009080 2.444036
v 6.280694 -0.009080 2.418300
v 6.294224 -0.009080 2.376660
v 6.280694 0.189723 2.335019
v 6.245273 0.189723 2.309283
v 6.201489 0.189723 2.309283
v 6.166068 0.189723 2.335019
v 6.152537 0.189723 2.376660
v 6.166068 0.189723 2.418300
v 6.201489 0.189723 2.444036
v 6.245273 0.189723 2.444036
v 6.280694 0.189723 2.418300
v 6.294224 0.189723 2.376660
v 5.633944 -0.009080 2.329892
v 5.598523 -0.009080 2.304157
v 5.554739 -0.009080 2.304157
v 5.519318 -0.009080 2.329892
v 5.505787 -0.009080 2.371533
v 5.519318 -0.009080 2.413174
v 5.554739 -0.009080 2.438909
v 5.598523 -0.009080 2.438909
v 5.633944 -0.009080 2.413174
v 5.647474 -0.009080 2.371533
v 5.633944 0.189723 2.329892
v 5.598523 0.189723 2.304157
v 5.554739 0.189723 2.304157
v 5.519318 0.189723 2.329892
v 5.505787 0.189723 2.371533
v 5.519318 0.189723 2.413174
v 5.554739 0.189723 2.438909
v 5.598523 0.189723 2.438909
v 5.633944 0.189723 2.413174
v 5.647474 0.189723 2.371533
v 5.455014 0.199453 2.452729
v 4.912269 1.344029 1.993655
v 4.902589 1.350561 1.993992
v 5.455014 1.344029 2.452729
v 5.454963 1.350561 2.459260
v 4.891772 1.344029 2.013554
v 4.891505 1.350561 2.004749
v 5.454723 1.350561 2.489487
v 5.454668 1.344029 2.496018
v 4.891768 0.205984 2.013557
v 4.891505 0.199453 2.004749
v 4.912269 0.199453 1.993655
v 4.902596 0.199453 1.993986
v 5.454084 0.205984 2.496014
v 5.454222 0.199453 2.489483
v 5.454687 0.199453 2.462431
v 6.335230 0.201064 0.886337
v 6.322402 0.201064 2.504680
v 6.355683 0.181620 0.865983
v 6.342533 0.181620 2.525355
v 5.462249 0.199496 0.877762
v 5.464475 0.201064 0.879434
v 5.462230 1.354715 0.880308
v 5.462256 1.351516 0.877179
v 5.464475 1.350241 0.879434
v 5.464454 1.352478 0.881671
v 5.449388 1.351516 2.499997
v 5.449415 1.354715 2.496867
v 5.451663 1.352478 2.495540
v 5.451644 1.350241 2.497777
v 6.335220 1.351359 0.887455
v 6.322412 1.351359 2.503561
v 5.449394 0.199496 2.499414
v 5.451644 0.201064 2.497777
v 5.462333 1.367081 0.867263
v 5.464599 1.369325 0.863899
v 5.464615 1.367087 0.861661
v 5.462358 1.364115 0.863888
v 6.355667 1.371923 0.868220
v 6.355683 1.369686 0.865983
v 5.462362 0.185792 0.863304
v 5.464615 0.184218 0.861661
v 5.449285 1.364115 2.513288
v 5.451505 1.367087 2.515550
v 5.451521 1.369325 2.513313
v 5.449312 1.367081 2.509913
v 6.342533 1.369686 2.525355
v 6.342551 1.371923 2.523118
v 5.451505 0.184218 2.515550
v 5.449279 0.185792 2.513872
v 5.491345 0.951357 0.929749
v 5.479312 0.951357 2.447724
v 5.491345 0.983006 0.929749
v 5.479312 0.983006 2.447724
v 6.271742 0.983006 0.935935
v 6.259710 0.983006 2.453910
v 5.491345 0.554839 0.929749
v 5.479312 0.554839 2.447724
v 5.491345 0.586489 0.929749
v 5.479312 0.586489 2.447724
v 6.271742 0.586489 0.935935
v 6.259710 0.586489 2.453910
v 4.914221 0.199453 1.360412
v 5.464444 1.344029 0.909939
v 5.464635 1.350561 0.898611
v 4.914221 1.344029 1.360412
v 4.906869 1.350561 1.357850
v 5.443182 1.344029 0.878519
v 5.453145 1.350561 0.881624
v 4.872757 1.350561 1.345877
v 4.865388 1.344029 1.343289
v 5.443182 0.205984 0.878517
v 5.453146 0.199453 0.881626
v 5.464444 0.199453 0.909939
v 5.464628 0.199453 0.898604
v 4.865427 0.205984 1.342614
v 4.872797 0.199453 1.345308
v 4.903296 0.199453 1.356291
v 4.889372 0.774190 1.351507
vt 0.879407 0.866478
vt 0.895768 0.866478
vt 0.895768 0.940764
vt 0.879407 0.940764
vt 0.912128 0.866478
vt 0.912128 0.940764
vt 0.928488 0.866478
vt 0.928488 0.940764
vt 0.944849 0.866478
vt 0.944849 0.940764
vt 0.961210 0.866478
vt 0.961210 0.940764
vt 0.977570 0.866478
vt 0.977570 0.940764
vt 0.813965 0.866478
vt 0.830325 0.866478
vt 0.830325 0.940764
vt 0.813965 0.940764
vt 0.846686 0.866478
vt 0.846686 0.940764
vt 0.863046 0.866478
vt 0.863046 0.940764
vt 0.879407 0.866478
vt 0.895768 0.866478
vt 0.895768 0.940764
vt 0.879407 0.940764
vt 0.912128 0.866478
vt 0.912128 0.940764
vt 0.928488 0.866478
vt 0.928488 0.940764
vt 0.944849 0.866478
vt 0.944849 0.940764
vt 0.961210 0.866478
vt 0.961210 0.940764
vt 0.977570 0.866478
vt 0.977570 0.940764
vt 0.813965 0.866478
vt 0.830325 0.866478
vt 0.830325 0.940764
vt 0.813965 0.940764
vt 0.846686 0.866478
vt 0.846686 0.940764
vt 0.863046 0.866478
vt 0.863046 0.940764
vt 0.879407 0.866478
vt 0.895768 0.866478
vt 0.895768 0.940764
vt 0.879407 0.940764
vt 0.912128 0.866478
vt 0.912128 0.940764
vt 0.928488 0.866478
vt 0.928488 0.940764
vt 0.944849 0.866478
vt 0.944849 0.940764
vt 0.961210 0.866478
vt 0.961210 0.940764
vt 0.977570 0.866478
vt 0.977570 0.940764
vt 0.813965 0.866478
vt 0.830325 0.866478
vt 0.830325 0.940764
vt 0.813965 0.940764
vt 0.846686 0.866478
vt 0.846686 0.940764
vt 0.863046 0.866478
vt 0.863046 0.940764
vt 0.879407 0.866478
vt 0.895768 0.866478
vt 0.895768 0.940764
vt 0.879407 0.940764
vt 0.912128 0.866478
vt 0.912128 0.940764
vt 0.928488 0.866478
vt 0.928488 0.940764
vt 0.944849 0.866478
vt 0.944849 0.940764
vt 0.961210 0.866478
vt 0.961210 0.940764
vt 0.977570 0.866478
vt 0.977570 0.940764
vt 0.813965 0.866478
vt 0.830325 0.866478
vt 0.830325 0.940764
vt 0.813965 0.940764
vt 0.846686 0.866478
vt 0.846686 0.940764
vt 0.863046 0.866478
vt 0.863046 0.940764
vt 0.516076 0.518846
vt 0.198200 0.519622
vt 0.197841 0.017449
vt 0.516017 0.018029
vt 0.195068 0.522924
vt 0.514037 0.521823
vt 0.189909 0.527850
vt 0.189608 0.009224
vt 0.194703 0.014156
vt 0.505405 0.530281
vt 0.535404 0.011213
vt 0.848487 0.010958
vt 0.849174 0.518472
vt 0.534272 0.518657
vt 0.506349 0.007277
vt 0.514012 0.015029
vt 0.852290 0.008446
vt 0.852960 0.522085
vt 0.532364 0.521909
vt 0.532704 0.008180
vt 0.977587 0.483955
vt 0.977366 0.645252
vt 0.859269 0.637664
vt 0.870905 0.482134
vt 0.799832 0.661092
vt 0.920817 0.653914
vt 0.917015 0.820673
vt 0.810350 0.818912
vt 0.009544 0.662941
vt 0.163635 0.661745
vt 0.172938 0.872218
vt 0.007334 0.874626
vt 0.146983 0.222514
vt 0.152706 0.393635
vt 0.018207 0.394610
vt 0.021725 0.222771
vt 0.032305 0.008701
vt 0.137226 0.008866
vt 0.953651 0.256031
vt 0.953651 0.465059
vt 0.877878 0.467664
vt 0.877878 0.253382
vt 0.205458 0.542055
vt 0.504482 0.541641
vt 0.504560 0.962461
vt 0.205553 0.962173
vt 0.982889 0.485896
vt 0.983125 0.640596
vt 0.979523 0.644905
vt 0.979653 0.484147
vt 0.152869 0.394124
vt 0.163552 0.661193
vt 0.536121 0.536294
vt 0.542320 0.532804
vt 0.552021 0.982145
vt 0.545698 0.978821
vt 0.918782 0.820486
vt 0.922727 0.654461
vt 0.928424 0.656111
vt 0.924998 0.818730
vt 0.784270 0.977810
vt 0.553824 0.983004
vt 0.544087 0.531880
vt 0.785003 0.532658
vt 0.962324 0.464560
vt 0.962324 0.256479
vt 0.984991 0.486109
vt 0.984565 0.640783
vt 0.991489 0.649736
vt 0.980246 0.650314
vt 0.543905 0.978425
vt 0.534345 0.536755
vt 0.946444 0.664685
vt 0.956644 0.664045
vt 0.957529 0.703558
vt 0.947632 0.701931
vt 0.930367 0.656465
vt 0.926773 0.818443
vt 0.554459 0.984915
vt 0.784208 0.979736
vt 0.869175 0.467911
vt 0.869175 0.253156
vt 0.544661 0.530043
vt 0.784967 0.530810
vt 0.992666 0.649234
vt 0.946768 0.657539
vt 0.953134 0.656546
vt 0.976080 0.651411
vt 0.953985 0.712597
vt 0.947040 0.711761
vt 0.869845 0.010695
vt 0.874592 0.009789
vt 0.873871 0.238418
vt 0.869175 0.237337
vt 0.991746 0.011771
vt 0.990851 0.236926
vt 0.869845 0.010695
vt 0.874592 0.009789
vt 0.873871 0.238418
vt 0.869175 0.237337
vt 0.991746 0.011771
vt 0.990851 0.236926
vt 0.516076 0.518846
vt 0.198200 0.519622
vt 0.197841 0.017449
vt 0.516017 0.018029
vt 0.195068 0.522924
vt 0.514037 0.521823
vt 0.189909 0.527850
vt 0.189608 0.009224
vt 0.194703 0.014156
vt 0.505405 0.530281
vt 0.535404 0.011213
vt 0.848487 0.010958
vt 0.849174 0.518472
vt 0.534272 0.518657
vt 0.506349 0.007277
vt 0.514012 0.015029
vt 0.852290 0.008446
vt 0.852960 0.522085
vt 0.532364 0.521909
vt 0.532704 0.008180
vt 0.819751 0.036790
vt 0.826279 0.453506
vt 0.813418 0.246040
vt 0.823480 0.455884
vt 0.810318 0.455884
vt 0.807439 0.453506
vt 0.800878 0.039168
vt 0.803699 0.036790
vt 0.815502 0.036790
vn 0.809017 0.000000 -0.587785
vn 0.309019 0.000000 -0.951056
vn 0.309019 0.000000 -0.951056
vn 0.809017 0.000000 -0.587785
vn -0.309019 0.000000 -0.951056
vn -0.309019 0.000000 -0.951056
vn -0.809017 0.000000 -0.587785
vn -0.809017 0.000000 -0.587785
vn -1.000000 0.000000 -0.000000
vn -1.000000 0.000000 -0.000000
vn -0.809016 0.000000 0.587786
vn -0.809016 0.000000 0.587786
vn -0.309017 0.000000 0.951057
vn -0.309017 0.000000 0.951057
vn 0.309018 0.000000 0.951056
vn 0.309018 0.000000 0.951056
vn 0.809016 0.000000 0.587786
vn 0.809016 0.000000 0.587786
vn 1.000000 0.000000 0.000000
vn 1.000000 0.000000 0.000000
vn 0.809017 0.000000 -0.587785
vn 0.309019 0.000000 -0.951056
vn 0.309019 0.000000 -0.951056
vn 0.809017 0.000000 -0.587785
vn -0.309019 0.000000 -0.951056
vn -0.309019 0.000000 -0.951056
vn -0.809017 0.000000 -0.587785
vn -0.809017 0.000000 -0.587785
vn -1.000000 0.000000 -0.000000
vn -1.000000 0.000000 -0.000000
vn -0.809016 0.000000 0.587786
vn -0.809016 0.000000 0.587786
vn -0.309017 0.000000 0.951057
vn -0.309017 0.000000 0.951057
vn 0.309019 0.000000 0.951056
vn 0.309019 0.000000 0.951056
vn 0.809016 0.000000 0.587786
vn 0.809016 0.000000 0.587786
vn 1.000000 0.000000 0.000000
vn 1.000000 0.000000 0.000000
vn 0.809017 0.000000 -0.587785
vn 0.309022 0.000000 -0.951055
vn 0.309022 0.000000 -0.951055
vn 0.809017 0.000000 -0.587785
vn -0.309022 0.000000 -0.951055
vn -0.309022 0.000000 -0.951055
vn -0.809017 0.000000 -0.587785
vn -0.809017 0.000000 -0.587785
vn -1.000000 0.000000 -0.000000
vn -1.000000 0.000000 -0.000000
vn -0.809017 0.000000 0.587785
vn -0.809017 0.000000 0.587785
vn -0.309017 0.000000 0.951057
vn -0.309017 0.000000 0.951057
vn 0.309017 0.000000 0.951057
vn 0.309017 0.000000 0.951057
vn 0.809017 0.000000 0.587785
vn 0.809017 0.000000 0.587785
vn 1.000000 0.000000 -0.000000
vn 1.000000 0.000000 -0.000000
vn 0.809017 0.000000 -0.587785
vn 0.309022 0.000000 -0.951055
vn 0.309022 0.000000 -0.951055
vn 0.809017 0.000000 -0.587785
vn -0.309022 0.000000 -0.951055
vn -0.309022 0.000000 -0.951055
vn -0.809017 0.000000 -0.587785
vn -0.809017 0.000000 -0.587785
vn -1.000000 0.000000 -0.000000
vn -1.000000 0.000000 -0.000000
vn -0.809017 0.000000 0.587785
vn -0.809017 0.000000 0.587785
vn -0.309017 0.000000 0.951057
vn -0.309017 0.000000 0.951057
vn 0.309017 0.000000 0.951057
vn 0.309017 0.000000 0.951057
vn 0.809017 0.000000 0.587785
vn 0.809017 0.000000 0.587785
vn 1.000000 0.000000 -0.000000
vn 1.000000 0.000000 -0.000000
vn -0.650968 0.000167 0.759106
vn -0.650968 0.000167 0.759106
vn -0.650968 0.000167 0.759106
vn -0.650968 0.000167 0.759106
vn -0.489115 0.660657 0.569472
vn -0.489115 0.660657 0.569472
vn -0.489115 0.660657 0.569472
vn -0.489115 0.660657 0.569472
vn -0.696413 -0.000000 -0.717641
vn -0.696413 -0.000000 -0.717641
vn -0.696413 -0.000000 -0.717641
vn -0.696413 -0.000000 -0.717641
vn 0.000000 1.000000 0.000000
vn 0.000000 1.000000 0.000000
vn 0.000000 1.000000 0.000000
vn 0.000000 1.000000 0.000000
vn 0.645801 0.000000 -0.763505
vn 0.645801 0.000000 -0.763505
vn 0.645801 0.000000 -0.763505
vn 0.645801 0.000000 -0.763505
vn 0.000000 -1.000000 -0.000000
vn 0.000000 -1.000000 -0.000000
vn 0.000000 -1.000000 -0.000000
vn 0.000000 -1.000000 -0.000000
vn -0.034540 0.000003 -0.999403
vn -0.034540 0.000003 -0.999403
vn -0.034540 0.000003 -0.999403
vn -0.034540 0.000003 -0.999403
vn 0.483658 0.661612 -0.573013
vn 0.483658 0.661612 -0.573013
vn 0.483658 0.661612 -0.573013
vn 0.483658 0.661612 -0.573013
vn -0.999546 0.000002 0.030145
vn -0.999546 0.000002 0.030145
vn -0.999546 0.000002 0.030145
vn -0.999546 0.000002 0.030145
vn -0.488407 -0.662349 0.568113
vn -0.488407 -0.662349 0.568113
vn -0.488407 -0.662349 0.568113
vn -0.488407 -0.662349 0.568113
vn 0.000000 -1.000000 -0.000000
vn 0.000000 -1.000000 -0.000000
vn 0.000000 -1.000000 -0.000000
vn 0.000000 -1.000000 -0.000000
vn 0.004850 0.000000 -0.999988
vn 0.004850 0.000000 -0.999988
vn 0.004850 0.000000 -0.999988
vn 0.004850 0.000000 -0.999988
vn -0.011004 0.000000 0.999939
vn -0.011004 0.000000 0.999939
vn -0.011004 0.000000 0.999940
vn -0.011004 0.000000 0.999940
vn -0.008569 -0.000487 0.999963
vn -0.008569 -0.000487 0.999963
vn -0.008569 -0.000487 0.999963
vn -0.008569 -0.000487 0.999963
vn 0.007284 -0.000487 -0.999973
vn 0.007284 -0.000487 -0.999973
vn 0.007284 -0.000487 -0.999973
vn 0.007284 -0.000487 -0.999973
vn 0.000000 1.000000 -0.000000
vn 0.000000 1.000000 -0.000000
vn 0.000000 1.000000 -0.000000
vn 0.000000 1.000000 -0.000000
vn -0.999969 0.000023 -0.007910
vn -0.999969 0.000024 -0.007861
vn -0.999969 0.000024 -0.007857
vn -0.999969 0.000022 -0.007909
vn -0.999969 0.000000 -0.007926
vn -0.999969 0.000000 -0.007926
vn -0.999969 0.000000 -0.007926
vn -0.999969 0.000000 -0.007926
vn -0.999970 0.000001 -0.007767
vn -0.999970 0.000000 -0.007768
vn -0.001285 -0.999999 -0.000010
vn -0.001285 -0.999999 -0.000010
vn -0.001285 -0.999999 -0.000010
vn -0.001285 -0.999999 -0.000010
vn -0.999969 0.000095 -0.007927
vn -0.999969 0.000095 -0.007928
vn -0.999969 0.000092 -0.007927
vn -0.999969 0.000094 -0.007927
vn -0.999969 0.000001 -0.007889
vn -0.999969 0.000000 -0.007888
vn -0.002916 0.999996 -0.000023
vn -0.002916 0.999996 -0.000023
vn -0.002916 0.999996 -0.000023
vn -0.002916 0.999996 -0.000023
vn -0.573975 0.818860 -0.004550
vn -0.573975 0.818860 -0.004550
vn -0.573975 0.818860 -0.004550
vn -0.573975 0.818860 -0.004550
vn -0.662212 0.000192 0.749317
vn -0.662212 0.000192 0.749317
vn -0.662212 0.000192 0.749317
vn -0.662212 0.000192 0.749317
vn -0.005606 -0.706962 0.707230
vn -0.005606 -0.706962 0.707230
vn -0.005606 -0.706962 0.707230
vn -0.707179 -0.707013 -0.005606
vn -0.707179 -0.707013 -0.005606
vn -0.707179 -0.707013 -0.005606
vn -0.707179 -0.707013 -0.005606
vn 0.005605 -0.707128 -0.707063
vn 0.005605 -0.707128 -0.707063
vn 0.005605 -0.707128 -0.707063
vn -0.650073 0.000191 -0.759872
vn -0.650073 0.000191 -0.759872
vn -0.650073 0.000191 -0.759872
vn -0.650073 0.000191 -0.759872
vn -0.709901 0.704254 -0.008197
vn -0.708533 0.705650 -0.006242
vn -0.708543 0.705650 -0.004992
vn -0.709945 0.704251 -0.003057
vn 0.001367 0.707114 -0.707098
vn 0.001367 0.707114 -0.707098
vn 0.001367 0.707114 -0.707098
vn 0.001367 0.707114 -0.707098
vn -0.651285 0.000187 -0.758833
vn -0.651285 0.000187 -0.758833
vn -0.651285 0.000187 -0.758833
vn -0.651285 0.000187 -0.758833
vn -0.575097 -0.818073 -0.004559
vn -0.575097 -0.818073 -0.004559
vn -0.575097 -0.818073 -0.004559
vn -0.575097 -0.818073 -0.004559
vn -0.663194 0.000187 0.748447
vn -0.663194 0.000187 0.748447
vn -0.663194 0.000187 0.748447
vn -0.663194 0.000187 0.748447
vn -0.009843 0.707060 0.707085
vn -0.009843 0.707060 0.707085
vn -0.009843 0.707060 0.707085
vn -0.009843 0.707060 0.707085
vn -0.750247 -0.467736 0.467283
vn -0.750247 -0.467736 0.467283
vn -0.750247 -0.467736 0.467283
vn -0.750247 -0.467736 0.467283
vn -0.742368 -0.467615 -0.479819
vn -0.742368 -0.467615 -0.479819
vn -0.742368 -0.467615 -0.479819
vn -0.742368 -0.467615 -0.479819
vn -0.860334 0.370546 -0.350031
vn -0.860334 0.370546 -0.350031
vn -0.865887 0.370192 0.336447
vn -0.865888 0.370192 0.336447
vn 0.999969 0.000000 0.007926
vn 0.040520 -0.999179 0.000321
vn 0.040520 -0.999179 0.000321
vn 0.999969 0.000000 0.007926
vn 0.000000 -1.000000 -0.000000
vn 0.000000 -1.000000 -0.000000
vn 0.999969 0.000000 0.007926
vn 0.040520 -0.999179 0.000321
vn 0.040520 -0.999179 0.000321
vn 0.999969 0.000000 0.007926
vn 0.000000 -1.000000 -0.000000
vn 0.000000 -1.000000 -0.000000
vn -0.626514 0.000221 -0.779410
vn -0.626514 0.000221 -0.779410
vn -0.626514 0.000221 -0.779410
vn -0.626514 0.000221 -0.779410
vn -0.406527 0.760191 -0.506799
vn -0.406527 0.760191 -0.506799
vn -0.406527 0.760191 -0.506799
vn -0.406527 0.760191 -0.506799
vn 0.828322 -0.000000 -0.560253
vn 0.828321 -0.000000 -0.560253
vn 0.828322 -0.000000 -0.560253
vn 0.828321 -0.000000 -0.560253
vn 0.000000 1.000000 -0.000002
vn 0.000000 1.000000 -0.000002
vn 0.000000 1.000000 -0.000002
vn 0.000000 1.000000 -0.000002
vn 0.633482 -0.000000 0.773757
vn 0.633482 -0.000000 0.773757
vn 0.633482 -0.000000 0.773757
vn 0.633482 -0.000000 0.773757
vn 0.000000 -1.000000 0.000000
vn 0.000000 -1.000000 0.000000
vn 0.000000 -1.000000 0.000000
vn 0.000000 -1.000000 0.000000
vn 0.999862 -0.000003 0.016597
vn 0.999862 -0.000003 0.016597
vn 0.999862 -0.000003 0.016597
vn 0.999862 -0.000003 0.016597
vn 0.412383 0.760043 0.502269
vn 0.412383 0.760043 0.502269
vn 0.412383 0.760043 0.502269
vn 0.412383 0.760043 0.502269
vn 0.297668 0.000000 -0.954669
vn 0.297668 0.000000 -0.954669
vn 0.297668 0.000000 -0.954669
vn 0.297668 0.000000 -0.954669
vn -0.404960 -0.761895 -0.505493
vn -0.404960 -0.761895 -0.505493
vn -0.404960 -0.761895 -0.505493
vn -0.404960 -0.761895 -0.505493
vn -0.000001 -1.000000 0.000000
vn -0.000001 -1.000000 0.000000
vn -0.000001 -1.000000 0.000000
vn -0.000001 -1.000000 0.000000
vn -0.337352 0.000000 0.941379
vn -0.337352 0.000000 0.941379
vn -0.337352 0.000000 0.941379
vn -0.331180 -0.000330 0.943567
vn -0.331180 -0.000330 0.943567
vn -0.331180 -0.000330 0.943567
vn -0.336220 -0.000570 0.941783
vn -0.336220 -0.000570 0.941783
vn -0.336220 -0.000570 0.941783
vn -0.329341 -0.000393 0.944211
vn -0.329341 -0.000393 0.944211
vn -0.329341 -0.000393 0.944211
vn -0.331088 -0.000328 0.943600
vn -0.331088 -0.000328 0.943600
vn -0.331088 -0.000328 0.943600
vn -0.343446 -0.000224 0.939173
vn -0.343446 -0.000224 0.939172
vn -0.343446 -0.000224 0.939173
vn -0.352874 -0.000759 0.935671
vn -0.352874 -0.000759 0.935671
vn -0.352874 -0.000759 0.935671
vn -0.338829 -0.000376 0.940848
vn -0.338829 -0.000376 0.940848
vn -0.338829 -0.000376 0.940848
s 1
g THEROOM:polySurface35
usemtl THEROOM:lambert2SG
f 1/1/1 2/2/2 12/3/3 11/4/4
f 2/2/2 3/5/5 13/6/6 12/3/3
f 3/5/5 4/7/7 14/8/8 13/6/6
f 4/7/7 5/9/9 15/10/10 14/8/8
f 5/9/9 6/11/11 16/12/12 15/10/10
f 6/11/11 7/13/13 17/14/14 16/12/12
f 7/15/13 8/16/15 18/17/16 17/18/14
f 8/16/15 9/19/17 19/20/18 18/17/16
f 9/19/17 10/21/19 20/22/20 19/20/18
f 10/21/19 1/1/1 11/4/4 20/22/20
s 2
f 21/23/21 22/24/22 32/25/23 31/26/24
f 22/24/22 23/27/25 33/28/26 32/25/23
f 23/27/25 24/29/27 34/30/28 33/28/26
f 24/29/27 25/31/29 35/32/30 34/30/28
f 25/31/29 26/33/31 36/34/32 35/32/30
f 26/33/31 27/35/33 37/36/34 36/34/32
f 27/37/33 28/38/35 38/39/36 37/40/34
f 28/38/35 29/41/37 39/42/38 38/39/36
f 29/41/37 30/43/39 40/44/40 39/42/38
f 30/43/39 21/23/21 31/26/24 40/44/40
s 3
f 41/45/41 42/46/42 52/47/43 51/48/44
f 42/46/42 43/49/45 53/50/46 52/47/43
f 43/49/45 44/51/47 54/52/48 53/50/46
f 44/51/47 45/53/49 55/54/50 54/52/48
f 45/53/49 46/55/51 56/56/52 55/54/50
f 46/55/51 47/57/53 57/58/54 56/56/52
f 47/59/53 48/60/55 58/61/56 57/62/54
f 48/60/55 49/63/57 59/64/58 58/61/56
f 49/63/57 50/65/59 60/66/60 59/64/58
f 50/65/59 41/45/41 51/48/44 60/66/60
s 4
f 61/67/61 62/68/62 72/69/63 71/70/64
f 62/68/62 63/71/65 73/72/66 72/69/63
f 63/71/65 64/73/67 74/74/68 73/72/66
f 64/73/67 65/75/69 75/76/70 74/74/68
f 65/75/69 66/77/71 76/78/72 75/76/70
f 66/77/71 67/79/73 77/80/74 76/78/72
f 67/81/73 68/82/75 78/83/76 77/84/74
f 68/82/75 69/85/77 79/86/78 78/83/76
f 69/85/77 70/87/79 80/88/80 79/86/78
f 70/87/79 61/67/61 71/70/64 80/88/80
s off
f 89/89/81 86/90/82 90/91/83 94/92/84
f 87/93/85 86/90/86 89/89/87 88/94/88
f 87/93/89 83/95/90 93/96/91 91/97/92
f 87/93/93 88/94/94 85/98/95 83/95/96
f 81/99/97 92/100/98 82/101/99 84/102/100
f 93/96/101 96/103/102 95/104/103 91/97/104
f 93/105/105 83/106/106 82/101/107 92/100/108
f 82/101/109 83/106/110 85/107/111 84/102/112
f 90/91/113 86/90/114 87/93/115 91/97/116
f 90/91/117 91/97/118 95/104/119 94/92/120
f 96/108/121 93/105/122 92/100/123 81/99/124
f 122/109/125 117/110/126 120/111/127 99/112/128
f 127/113/129 124/114/130 129/115/131 100/116/132
f 111/117/133 105/118/134 102/119/135 97/120/136
f 114/121/137 110/122/138 112/123/139 98/124/140
f 97/125/141 102/126/142 114/121/143 98/124/144
s 5
f 113/127/145 101/128/146 121/129/147 130/130/148
s off
f 111/131/149 97/132/150 98/133/151 112/134/152
s 5
f 101/135/146 104/136/153 118/137/154 121/138/147
s off
f 112/123/155 109/139/156 106/140/157 111/117/158
s 5
f 108/141/159 126/142/160 115/143/161 103/144/162
f 130/145/148 123/146/163 107/147/164 113/148/145
s off
f 119/149/165 116/150/166 125/151/167 128/152/168
f 102/153/169 101/128/170 113/127/171 114/154/172
f 101/135/173 102/155/174 105/156/175 104/136/176
s 5
f 104/136/153 103/157/162 115/158/161 118/137/154
s off
f 106/140/177 105/118/178 111/117/179
f 103/144/180 106/159/181 109/160/182 108/141/183
s 5
f 108/161/159 107/162/164 123/163/163 126/164/160
s off
f 110/122/184 109/139/185 112/123/186
f 107/147/187 110/165/188 114/166/189 113/148/190
s 7
f 116/150/191 115/143/192 126/142/193 125/151/194
s off
f 117/167/195 116/150/196 119/149/197 120/168/198
f 118/137/199 117/110/200 122/109/201 121/138/202
f 121/129/203 122/169/204 129/170/205 130/130/206
f 124/114/207 123/146/208 130/145/209 129/115/210
f 125/151/211 124/171/212 127/172/213 128/152/214
f 103/157/215 104/136/216 105/156/217 106/173/218
f 107/162/219 108/161/220 109/174/221 110/175/222
s 7
f 115/158/192 116/176/191 117/110/223 118/137/224
f 123/163/225 124/177/226 125/178/194 126/164/193
s 8
f 131/179/227 133/180/228 134/181/229 132/182/230
f 133/180/228 135/183/231 136/184/232 134/181/229
s 9
f 137/185/233 139/186/234 140/187/235 138/188/236
f 139/186/234 141/189/237 142/190/238 140/187/235
s off
f 151/191/239 148/192/240 152/193/241 156/194/242
f 149/195/243 148/192/244 151/191/245 150/196/246
f 149/195/247 145/197/248 155/198/249 153/199/250
f 149/195/251 150/196/252 147/200/253 145/197/254
f 143/201/255 154/202/256 144/203/257 146/204/258
f 155/198/259 158/205/260 157/206/261 153/199/262
f 155/207/263 145/208/264 144/203/265 154/202/266
f 144/203/267 145/208/268 147/209/269 146/204/270
f 152/193/271 148/192/272 149/195/273 153/199/274
f 152/193/275 153/199/276 157/206/277 156/194/278
f 158/210/279 155/207/280 154/202/281 143/201/282
f 143/211/283 146/212/284 159/213/285
f 147/214/286 150/215/287 159/213/288
f 151/216/289 156/217/290 159/213/291
f 146/212/292 147/214/293 159/213/294
f 150/215/295 151/216/296 159/213/297
f 156/217/298 157/218/299 159/213/300
f 158/219/301 143/211/302 159/213/303
f 157/218/304 158/219/305 159/213/306
