# This file uses centimeters as units for non-parametric coordinates.

mtllib Room_ChairMesh.mtl
g default
v -9.067441 -0.013164 7.185043
v -9.043144 -0.013164 7.126385
v -9.014037 0.847651 7.126385
v -9.046859 0.847651 7.205624
v -9.067441 -0.013164 7.067729
v -9.046859 0.847651 7.047148
v -9.126098 -0.013164 7.043433
v -9.126098 0.847651 7.014326
v -9.184755 -0.013164 7.067729
v -9.205336 0.847651 7.047148
v -9.184755 -0.013164 7.185043
v -9.126098 -0.013164 7.209339
v -9.126098 0.847651 7.238445
v -9.205336 0.847651 7.205624
v -9.209052 -0.013164 7.126385
v -9.238158 0.847651 7.126385
vt 0.491131 0.578563
vt 0.511447 0.578397
vt 0.516042 0.857784
vt 0.488558 0.857913
vt 0.531636 0.577680
vt 0.543550 0.856759
vt 0.551994 0.576518
vt 0.571067 0.854962
vt 0.572227 0.574825
vt 0.378908 0.850388
vt 0.450669 0.577087
vt 0.470908 0.578088
vt 0.461101 0.857210
vt 0.433689 0.855623
vt 0.430430 0.575650
vt 0.406310 0.853274
vt 0.598580 0.852594
vt 0.410179 0.573688
vn 0.706703 -0.033793 0.706703
vn 0.999429 -0.033793 -0.000000
vn 0.999429 -0.033793 -0.000000
vn 0.706703 -0.033793 0.706703
vn 0.706699 -0.033793 -0.706707
vn 0.706699 -0.033793 -0.706707
vn 0.000000 -0.033793 -0.999429
vn -0.000000 -0.033793 -0.999429
vn -0.706698 -0.033793 -0.706708
vn -0.706698 -0.033793 -0.706708
vn -0.706702 -0.033793 0.706704
vn 0.000000 -0.033793 0.999429
vn -0.000000 -0.033793 0.999429
vn -0.706702 -0.033793 0.706704
vn -0.999429 -0.033793 -0.000000
vn -0.999429 -0.033793 0.000000
s 1
g Stol_och_bord:polySurface34 Stol_och_bord:polySurface13
usemtl lambert2SG
f 1/1/1 2/2/2 3/3/3 4/4/4
f 2/2/2 5/5/5 6/6/6 3/3/3
f 5/5/5 7/7/7 8/8/8 6/6/6
f 7/7/7 9/9/9 10/17/10 8/8/8
f 11/11/11 12/12/12 13/13/13 14/14/14
f 12/12/12 1/1/1 4/4/4 13/13/13
f 9/18/9 15/15/15 16/16/16 10/10/10
f 15/15/15 11/11/11 14/14/14 16/16/16
g default
v -8.057486 -0.013164 7.217116
v -8.033189 -0.013164 7.158458
v -8.004083 0.847651 7.158458
v -8.036904 0.847651 7.237696
v -8.057486 -0.013164 7.099801
v -8.036904 0.847651 7.079221
v -8.116143 -0.013164 7.075505
v -8.116143 0.847651 7.046399
v -8.174800 -0.013164 7.099801
v -8.195382 0.847651 7.079221
v -8.174800 -0.013164 7.217116
v -8.116143 -0.013164 7.241412
v -8.116143 0.847651 7.270518
v -8.195382 0.847651 7.237696
v -8.199097 -0.013164 7.158458
v -8.228203 0.847651 7.158458
vt 0.491131 0.578563
vt 0.511447 0.578397
vt 0.516042 0.857784
vt 0.488558 0.857913
vt 0.531636 0.577680
vt 0.543550 0.856759
vt 0.551994 0.576518
vt 0.571067 0.854962
vt 0.572227 0.574825
vt 0.378908 0.850388
vt 0.450669 0.577087
vt 0.470908 0.578088
vt 0.461101 0.857210
vt 0.433689 0.855623
vt 0.430430 0.575650
vt 0.406310 0.853274
vt 0.598580 0.852594
vt 0.410179 0.573688
vn 0.706703 -0.033793 0.706703
vn 0.999429 -0.033793 -0.000000
vn 0.999429 -0.033793 -0.000000
vn 0.706703 -0.033793 0.706703
vn 0.706699 -0.033793 -0.706707
vn 0.706699 -0.033793 -0.706707
vn 0.000000 -0.033793 -0.999429
vn 0.000000 -0.033793 -0.999429
vn -0.706698 -0.033793 -0.706708
vn -0.706698 -0.033793 -0.706708
vn -0.706702 -0.033793 0.706704
vn -0.000000 -0.033793 0.999429
vn -0.000000 -0.033793 0.999429
vn -0.706702 -0.033793 0.706704
vn -0.999429 -0.033793 -0.000000
vn -0.999429 -0.033793 0.000000
s 1
g Stol_och_bord:polySurface13 polySurface14
usemtl lambert2SG
f 17/19/17 18/20/18 19/21/19 20/22/20
f 18/20/18 21/23/21 22/24/22 19/21/19
f 21/23/21 23/25/23 24/26/24 22/24/22
f 23/25/23 25/27/25 26/35/26 24/26/24
f 27/29/27 28/30/28 29/31/29 30/32/30
f 28/30/28 17/19/17 20/22/20 29/31/29
f 25/36/25 31/33/31 32/34/32 26/28/26
f 31/33/31 27/29/27 30/32/30 32/34/32
g default
v -9.152096 1.059017 7.158458
v -8.116143 1.059017 7.158458
v -9.152096 1.059017 6.122505
v -8.116143 1.059017 6.122505
v -9.152096 1.044312 7.365649
v -9.152096 1.059017 7.350931
v -9.311077 1.037286 7.317440
v -9.299324 1.053483 7.305686
v -8.116143 1.044312 7.365649
v -8.116143 1.059017 7.350931
v -9.359286 1.044312 7.158458
v -9.344569 1.059017 7.158458
v -9.152096 1.044312 5.915314
v -9.152096 1.059017 5.930031
v -8.116143 1.044312 5.915314
v -8.116143 1.059017 5.930031
v -7.908952 1.044312 6.122505
v -7.923669 1.059017 6.122505
v -7.957161 1.037286 5.963524
v -7.968916 1.053483 5.975279
v -7.968916 1.053483 7.305686
v -7.957161 1.037286 7.317440
v -7.908952 1.044312 7.158458
v -7.923669 1.059017 7.158458
v -9.311077 1.037286 5.963524
v -9.299324 1.053483 5.975279
v -9.359286 1.044312 6.122505
v -9.344569 1.059017 6.122505
v -7.965948 0.853903 7.308653
v -7.957161 0.867128 7.317440
v -7.908952 0.860102 7.158458
v -7.921413 0.847651 7.158458
v -7.957161 0.867128 5.963524
v -7.965948 0.853903 5.972311
v -7.908952 0.860102 6.122505
v -7.921413 0.847651 6.122505
v -8.116143 0.860102 5.915314
v -8.116143 0.847651 5.927774
v -9.152096 0.860102 5.915314
v -9.152096 0.847651 5.927774
v -9.311077 0.867128 5.963524
v -9.302290 0.853903 5.972311
v -9.359286 0.860102 6.122505
v -9.346826 0.847651 6.122505
v -9.359286 0.860102 7.158458
v -9.346826 0.847651 7.158458
v -9.311077 0.867128 7.317440
v -9.302290 0.853903 7.308653
v -8.116143 0.847651 7.353188
v -8.116143 0.860102 7.365649
v -9.152096 0.860102 7.365649
v -9.152096 0.847651 7.353188
vt 0.499592 0.130237
vt 0.509236 0.084614
vt 0.555134 0.075233
vt 0.555343 0.130772
vt 0.857775 0.074973
vt 0.857239 0.130720
vt 0.555410 0.432670
vt 0.857294 0.432602
vt 0.857509 0.488142
vt 0.554872 0.488422
vt 0.913042 0.433140
vt 0.903400 0.478757
vt 0.903395 0.084613
vt 0.912781 0.130507
vt 0.499872 0.432883
vt 0.509253 0.478777
vt 0.918928 0.130401
vt 0.908856 0.079137
vt 0.913433 0.022395
vt 0.973128 0.128143
vt 0.908876 0.484218
vt 0.919209 0.433284
vt 0.973635 0.435351
vt 0.965616 0.488803
vt 0.554729 0.494590
vt 0.857616 0.494289
vt 0.859876 0.548484
vt 0.552663 0.549021
vt 0.499204 0.541000
vt 0.503791 0.484253
vt 0.493726 0.432989
vt 0.439529 0.435245
vt 0.503760 0.079153
vt 0.493425 0.130094
vt 0.438994 0.128031
vt 0.447012 0.074573
vt 0.857918 0.068805
vt 0.859982 0.014380
vt 0.555028 0.069086
vt 0.552774 0.014885
vt 0.912049 0.017140
vt 0.860214 0.009224
vt 0.978304 0.127901
vt 0.978791 0.435583
vt 0.970871 0.487420
vt 0.860118 0.553660
vt 0.552432 0.554177
vt 0.500587 0.546255
vt 0.434353 0.435488
vt 0.433838 0.127800
vt 0.441756 0.075957
vt 0.552532 0.009709
vt 0.501510 0.018294
vt 0.500260 0.023596
vt 0.442938 0.486504
vt 0.448240 0.487753
vt 0.911137 0.545069
vt 0.912385 0.539768
vt 0.969713 0.076876
vt 0.964411 0.075628
vn -0.001941 0.999996 0.001941
vn -0.018790 0.999647 0.018790
vn -0.001941 0.999996 0.001941
vn -0.000355 1.000000 0.000355
vn 0.001941 0.999996 0.001941
vn 0.000355 1.000000 0.000355
vn -0.000355 1.000000 -0.000355
vn 0.000355 1.000000 -0.000355
vn 0.001941 0.999996 -0.001941
vn -0.001941 0.999996 -0.001941
vn 0.001941 0.999996 -0.001941
vn 0.018790 0.999647 -0.018790
vn 0.018790 0.999647 0.018790
vn 0.001941 0.999996 0.001941
vn -0.001941 0.999996 -0.001941
vn -0.018790 0.999647 -0.018790
vn 0.999275 0.000000 0.038058
vn 0.956970 0.000000 0.290186
vn 0.956970 0.000000 0.290186
vn 0.999275 0.000000 0.038058
vn 0.956969 0.000000 -0.290190
vn 0.999276 0.000000 -0.038058
vn 0.999276 0.000000 -0.038058
vn 0.956969 0.000000 -0.290190
vn -0.038060 0.000000 -0.999275
vn 0.038060 0.000000 -0.999275
vn 0.038060 0.000000 -0.999275
vn -0.038060 0.000000 -0.999275
vn 0.290197 0.000000 -0.956967
vn 0.290197 0.000000 -0.956967
vn -0.290197 0.000000 -0.956967
vn -0.290197 0.000000 -0.956967
vn -0.999276 0.000000 -0.038058
vn -0.956969 0.000000 -0.290190
vn -0.956969 0.000000 -0.290190
vn -0.999276 0.000000 -0.038058
vn -0.956970 0.000000 0.290186
vn -0.999275 0.000000 0.038058
vn -0.999275 0.000000 0.038058
vn -0.956970 0.000000 0.290186
vn 0.290185 0.000000 0.956971
vn 0.038058 0.000000 0.999276
vn 0.038058 0.000000 0.999276
vn 0.290185 0.000000 0.956971
vn -0.038058 0.000000 0.999276
vn -0.290185 0.000000 0.956971
vn -0.290185 0.000000 0.956971
vn -0.038058 0.000000 0.999276
vn -0.035641 0.706297 0.707018
vn -0.029212 0.706562 0.707048
vn 0.029212 0.706563 0.707047
vn 0.035641 0.706297 0.707018
vn -0.238805 0.682543 0.690729
vn -0.238805 0.682543 0.690729
vn -0.690737 0.682534 0.238808
vn -0.690737 0.682534 0.238808
vn -0.707032 0.706283 0.035642
vn -0.707061 0.706548 0.029212
vn 0.238805 0.682546 0.690726
vn 0.238805 0.682546 0.690726
vn -0.707032 0.706283 -0.035642
vn -0.707062 0.706548 -0.029212
vn -0.035643 0.706297 -0.707018
vn -0.029213 0.706563 -0.707047
vn -0.238814 0.682544 -0.690725
vn -0.238814 0.682544 -0.690726
vn 0.035643 0.706298 -0.707017
vn 0.029213 0.706563 -0.707047
vn 0.238814 0.682547 -0.690722
vn 0.238814 0.682547 -0.690722
vn 0.707031 0.706284 -0.035642
vn 0.707061 0.706549 -0.029212
vn 0.690732 0.682539 -0.238811
vn 0.690732 0.682539 -0.238811
vn 0.707031 0.706284 0.035642
vn 0.707061 0.706549 0.029212
vn 0.690732 0.682540 0.238807
vn 0.690731 0.682540 0.238807
vn -0.690738 0.682532 -0.238811
vn -0.690738 0.682532 -0.238811
vn 0.240344 -0.666358 0.705834
vn 0.240344 -0.666358 0.705834
vn 0.028637 -0.704708 0.708920
vn 0.034802 -0.704054 0.709293
vn 0.705838 -0.666354 0.240344
vn 0.705838 -0.666354 0.240344
vn 0.709294 -0.704053 0.034802
vn 0.708920 -0.704707 0.028637
vn 0.709293 -0.704054 -0.034803
vn 0.708920 -0.704708 -0.028638
vn 0.705833 -0.666358 -0.240347
vn 0.705833 -0.666358 -0.240347
vn 0.240359 -0.666333 -0.705853
vn 0.240359 -0.666333 -0.705853
vn 0.034805 -0.704024 -0.709323
vn 0.028640 -0.704677 -0.708950
vn -0.034805 -0.704024 -0.709323
vn -0.028640 -0.704677 -0.708950
vn -0.240359 -0.666333 -0.705853
vn -0.240359 -0.666333 -0.705853
vn -0.705841 -0.666348 -0.240352
vn -0.705841 -0.666348 -0.240352
vn -0.709308 -0.704039 -0.034804
vn -0.708935 -0.704693 -0.028638
vn -0.709307 -0.704040 0.034804
vn -0.708934 -0.704693 0.028638
vn -0.705837 -0.666353 0.240348
vn -0.705837 -0.666353 0.240348
vn -0.240343 -0.666360 0.705832
vn -0.240343 -0.666360 0.705832
vn -0.034802 -0.704055 0.709293
vn -0.028637 -0.704708 0.708919
s 1
g Stol_och_bord:polySurface13 polySurface15
usemtl lambert2SG
f 44/37/33 40/38/34 38/39/35 33/40/36
f 33/40/36 38/39/35 42/41/37 34/42/38
f 35/43/39 33/40/36 34/42/38 36/44/40
f 48/45/41 46/46/42 35/43/39 36/44/40
f 36/44/40 50/47/43 52/48/44 48/45/41
f 34/42/38 42/41/37 53/49/45 56/50/46
f 34/42/38 56/50/46 50/47/43 36/44/40
f 60/51/47 44/37/33 33/40/36 35/43/39
f 46/46/42 58/52/48 60/51/47 35/43/39
s 2
f 55/53/49 54/54/50 62/96/51 63/56/52
f 51/57/53 49/58/54 67/59/55 65/60/56
f 63/56/52 67/59/55 49/58/54 55/53/49
s 3
f 45/61/57 47/62/58 69/63/59 71/64/60
f 65/94/61 69/63/59 47/62/58 51/57/62
f 71/64/60 73/65/63 57/66/64 45/61/57
s 4
f 59/67/65 57/66/66 73/92/67 75/68/68
f 39/69/69 43/70/70 77/71/71 79/72/72
f 43/70/70 59/67/65 75/68/68 77/71/71
s 5
f 54/54/73 41/73/74 82/74/75 62/55/76
f 37/75/77 39/69/78 79/90/79 83/76/80
f 83/76/80 82/74/75 41/73/74 37/75/77
s 6
f 38/39/81 37/75/82 41/73/83 42/41/84
f 37/75/82 38/39/81 40/38/85 39/69/86
s 7
f 39/69/87 40/38/88 44/37/89 43/70/90
s 6
f 42/41/84 41/73/83 54/54/91 53/49/92
s 7
f 43/70/90 44/37/89 60/51/93 59/67/94
s 8
f 46/46/95 45/61/96 57/66/97 58/52/98
f 45/61/96 46/46/95 48/45/99 47/62/100
f 47/62/100 48/45/99 52/48/101 51/57/102
s 9
f 50/47/103 49/58/104 51/57/105 52/48/106
f 49/58/104 50/47/103 56/50/107 55/53/108
f 53/49/109 54/54/110 55/53/108 56/50/107
s 7
f 58/52/111 57/66/112 59/67/94 60/51/93
s 10
f 61/77/113 62/55/114 82/74/115 81/78/116
s 11
f 62/96/117 61/95/118 64/79/119 63/56/120
f 63/56/120 64/79/119 68/80/121 67/59/122
f 66/81/123 65/60/124 67/59/122 68/80/121
s 12
f 65/94/125 66/93/126 70/82/127 69/63/128
f 69/63/128 70/82/127 72/83/129 71/64/130
f 71/64/130 72/83/129 74/84/131 73/65/132
s 13
f 73/92/133 74/91/134 76/85/135 75/68/136
f 75/68/136 76/85/135 78/86/137 77/71/138
f 77/71/138 78/86/137 80/87/139 79/72/140
s 10
f 79/90/141 80/89/142 84/88/143 83/76/144
f 81/78/116 82/74/115 83/76/144 84/88/143
g default
v -8.057486 -0.013164 6.262461
v -8.033189 -0.013164 6.203803
v -8.004083 0.847651 6.203803
v -8.036904 0.847651 6.283041
v -8.057486 -0.013164 6.145146
v -8.036904 0.847651 6.124566
v -8.116143 -0.013164 6.120850
v -8.116143 0.847651 6.091744
v -8.174800 -0.013164 6.145146
v -8.195382 0.847651 6.124566
v -8.174800 -0.013164 6.262461
v -8.116143 -0.013164 6.286757
v -8.116143 0.847651 6.315863
v -8.195382 0.847651 6.283041
v -8.199097 -0.013164 6.203803
v -8.228203 0.847651 6.203803
vt 0.491131 0.578563
vt 0.511447 0.578397
vt 0.516042 0.857784
vt 0.488558 0.857913
vt 0.531636 0.577680
vt 0.543550 0.856759
vt 0.551994 0.576518
vt 0.571067 0.854962
vt 0.572227 0.574825
vt 0.378908 0.850388
vt 0.450669 0.577087
vt 0.470908 0.578088
vt 0.461101 0.857210
vt 0.433689 0.855623
vt 0.430430 0.575650
vt 0.406310 0.853274
vt 0.598580 0.852594
vt 0.410179 0.573688
vn 0.706703 -0.033793 0.706703
vn 0.999429 -0.033793 -0.000000
vn 0.999429 -0.033793 -0.000000
vn 0.706703 -0.033793 0.706703
vn 0.706699 -0.033793 -0.706707
vn 0.706699 -0.033793 -0.706707
vn 0.000000 -0.033793 -0.999429
vn 0.000000 -0.033793 -0.999429
vn -0.706698 -0.033793 -0.706708
vn -0.706698 -0.033793 -0.706708
vn -0.706702 -0.033793 0.706704
vn -0.000000 -0.033793 0.999429
vn -0.000000 -0.033793 0.999429
vn -0.706702 -0.033793 0.706704
vn -0.999429 -0.033793 -0.000000
vn -0.999429 -0.033793 0.000000
s 1
g Stol_och_bord:polySurface13 Stol_och_bord:polySurface14
usemtl lambert2SG
f 85/97/145 86/98/146 87/99/147 88/100/148
f 86/98/146 89/101/149 90/102/150 87/99/147
f 89/101/149 91/103/151 92/104/152 90/102/150
f 91/103/151 93/105/153 94/113/154 92/104/152
f 95/107/155 96/108/156 97/109/157 98/110/158
f 96/108/156 85/97/145 88/100/148 97/109/157
f 93/114/153 99/111/159 100/112/160 94/106/154
f 99/111/159 95/107/155 98/110/158 100/112/160
g default
v -9.067441 -0.013164 6.262461
v -9.043144 -0.013164 6.203803
v -9.014037 0.847651 6.203803
v -9.046859 0.847651 6.283041
v -9.067441 -0.013164 6.145146
v -9.046859 0.847651 6.124566
v -9.126098 -0.013164 6.120850
v -9.126098 0.847651 6.091744
v -9.184755 -0.013164 6.145146
v -9.205336 0.847651 6.124566
v -9.184755 -0.013164 6.262461
v -9.126098 -0.013164 6.286757
v -9.126098 0.847651 6.315863
v -9.205336 0.847651 6.283041
v -9.209052 -0.013164 6.203803
v -9.238158 0.847651 6.203803
vt 0.491131 0.578563
vt 0.511447 0.578397
vt 0.516042 0.857784
vt 0.488558 0.857913
vt 0.531636 0.577680
vt 0.543550 0.856759
vt 0.551994 0.576518
vt 0.571067 0.854962
vt 0.572227 0.574825
vt 0.378908 0.850388
vt 0.450669 0.577087
vt 0.470908 0.578088
vt 0.461101 0.857210
vt 0.433689 0.855623
vt 0.430430 0.575650
vt 0.406310 0.853274
vt 0.598580 0.852594
vt 0.410179 0.573688
vn 0.706703 -0.033793 0.706703
vn 0.999429 -0.033793 -0.000000
vn 0.999429 -0.033793 -0.000000
vn 0.706703 -0.033793 0.706703
vn 0.706699 -0.033793 -0.706707
vn 0.706699 -0.033793 -0.706707
vn 0.000000 -0.033793 -0.999429
vn -0.000000 -0.033793 -0.999429
vn -0.706698 -0.033793 -0.706708
vn -0.706698 -0.033793 -0.706708
vn -0.706702 -0.033793 0.706704
vn 0.000000 -0.033793 0.999429
vn -0.000000 -0.033793 0.999429
vn -0.706702 -0.033793 0.706704
vn -0.999429 -0.033793 -0.000000
vn -0.999429 -0.033793 0.000000
s 1
g Stol_och_bord:polySurface13 Stol_och_bord:polySurface33
usemtl lambert2SG
f 101/115/161 102/116/162 103/117/163 104/118/164
f 102/116/162 105/119/165 106/120/166 103/117/163
f 105/119/165 107/121/167 108/122/168 106/120/166
f 107/121/167 109/123/169 110/131/170 108/122/168
f 111/125/171 112/126/172 113/127/173 114/128/174
f 112/126/172 101/115/161 104/118/164 113/127/173
f 109/132/169 115/129/175 116/130/176 110/124/170
f 115/129/175 111/125/171 114/128/174 116/130/176
