# This file uses centimeters as units for non-parametric coordinates.

mtllib Room_Wallmesh.mtl
g default
v -9.369952 -0.008621 10.992771
v 6.345665 -0.008626 10.992744
v -9.369952 3.060073 10.992771
v 6.345665 3.060068 10.992744
v -9.369952 3.060073 4.503638
v 6.345665 3.060068 4.530661
v -9.369952 -0.008621 4.503638
v 6.345665 -0.008626 4.530661
v 0.295531 3.060070 10.992754
v 0.283852 3.060070 4.503621
v 0.283852 -0.008624 4.503621
v 0.262560 -0.008624 10.992754
v 0.283852 3.060070 -0.144227
v 0.283852 -0.008624 -0.144227
v 6.345665 3.060068 -0.144238
v 6.345665 -0.008626 -0.144238
v -9.369952 3.060073 9.720684
v -9.369952 -0.008621 9.720685
v 6.345665 -0.008626 9.725960
v 6.345665 3.060068 9.725960
v -9.369952 3.060073 8.519148
v -9.369952 -0.008621 8.519148
v 6.345665 -0.008626 8.529432
v 6.345665 3.060068 8.529432
v -9.369952 2.668424 10.992771
v -9.369952 2.668424 9.720685
v -9.369952 2.668424 8.519149
v -9.369952 2.668424 4.503638
v 0.283852 2.668421 4.503621
v 0.283852 2.668421 -0.144227
v 6.345664 2.668419 -0.144238
v 6.345664 2.668419 4.530661
v 6.345664 2.668419 8.529432
v 6.345664 2.668419 9.725960
v 6.345664 2.668419 10.992744
v 0.262560 2.668421 10.992754
vt -5.764631 0.036108
vt -2.803973 0.036108
vt -2.803995 0.859069
vt -5.764511 0.859748
vt 8.747910 0.853858
vt 5.780222 0.859562
vt 5.780232 0.036108
vt 8.746592 0.036108
vt -0.934133 0.036108
vt -0.544364 0.036108
vt -0.545502 0.860302
vt -0.934469 0.859931
vt -6.155737 0.036108
vt -6.155346 0.859491
vt 4.351764 0.036108
vt 4.351787 0.855750
vt 2.488633 0.855603
vt 2.488658 0.036108
vt 1.051759 0.853977
vt 1.051842 0.036108
vt -7.764811 0.036108
vt -6.528331 0.036108
vt -6.526257 0.857289
vt -7.758764 0.869533
vt -0.177535 0.857413
vt -0.176723 0.036108
vt -5.764503 0.979265
vt -6.155477 0.979266
vt -6.526202 0.979266
vt -7.757731 0.979266
vt 8.748112 0.979266
vt 5.780226 0.979266
vt 4.351791 0.979266
vt 2.488628 0.979266
vt 1.051744 0.979266
vt -0.177534 0.979266
vt -0.545498 0.979266
vt -0.934488 0.979265
vt -2.793863 0.979265
vn -0.000002 0.000000 -1.000000
vn -0.000002 0.000000 -1.000000
vn -0.000002 0.000000 -1.000000
vn -0.000002 0.000000 -1.000000
vn 0.000002 0.000000 1.000000
vn 0.000002 0.000000 1.000000
vn 0.000002 0.000000 1.000000
vn 0.000002 0.000000 1.000000
vn -1.000000 -0.000000 0.000000
vn -1.000000 0.000000 0.000000
vn -1.000000 0.000000 0.000000
vn -1.000000 -0.000000 0.000000
vn 1.000000 0.000000 0.000000
vn 1.000000 0.000000 0.000000
vn 1.000000 0.000000 0.000000
vn 1.000000 0.000000 0.000000
vn 0.000002 0.000000 1.000000
vn 0.000002 0.000000 1.000000
vn 0.000002 0.000000 1.000000
vn 0.000002 0.000000 1.000000
vn -0.000002 0.000000 -1.000000
vn -0.000002 0.000000 -1.000000
vn 1.000000 0.000000 0.000000
vn 1.000000 0.000000 0.000000
vn 1.000000 0.000000 0.000000
vn 1.000000 0.000000 0.000000
vn -1.000000 0.000000 0.000000
vn -1.000000 0.000000 0.000000
vn -1.000000 -0.000000 0.000000
vn -1.000000 -0.000000 0.000000
vn 1.000000 0.000000 0.000000
vn 1.000000 0.000000 0.000000
vn 1.000000 0.000000 0.000000
vn 1.000000 0.000000 0.000000
vn -1.000000 0.000000 0.000000
vn -1.000000 -0.000000 0.000000
vn 1.000000 0.000001 0.000000
vn 1.000000 0.000002 0.000000
vn 1.000000 0.000000 0.000000
vn 1.000000 0.000000 0.000000
vn 0.000002 0.000000 1.000000
vn 0.000002 0.000000 1.000000
vn 1.000000 0.000000 0.000000
vn 1.000000 0.000000 0.000000
vn 0.000002 0.000000 1.000000
vn 0.000002 0.000000 1.000000
vn -1.000000 0.000002 0.000000
vn -1.000000 0.000002 0.000000
vn -1.000000 0.000001 0.000000
vn -1.000000 0.000002 0.000000
vn -1.000000 0.000002 0.000000
vn -0.000002 0.000000 -1.000000
vn -0.000002 0.000000 -1.000000
vn -0.000002 0.000000 -1.000000
s 1
g polySurface16 EnMeter
usemtl initialShadingGroup
f 1/1/1 25/4/2 36/3/3 12/2/4
s 2
f 28/5/5 7/8/6 11/7/7 29/6/8
s 3
f 2/9/9 35/12/10 34/11/11 19/10/12
s 4
f 18/13/13 26/14/14 25/4/15 1/1/16
s 5
f 14/15/17 16/18/18 31/17/19 30/16/20
s 1
f 36/3/3 35/12/21 2/9/22 12/2/4
s 6
f 11/7/23 14/15/24 30/16/25 29/6/26
s 3
f 32/19/27 31/17/28 16/18/29 8/20/30
s 4
f 7/21/31 28/24/32 27/23/33 22/22/34
s 3
f 33/25/35 32/19/27 8/20/30 23/26/36
s 4
f 26/14/14 17/28/37 3/27/38 25/4/15
f 27/23/33 21/29/39 17/28/37 26/14/14
f 28/24/32 5/30/40 21/29/39 27/23/33
s 2
f 5/31/41 28/5/5 29/6/8 10/32/42
s 6
f 30/16/25 13/33/43 10/32/44 29/6/26
s 5
f 31/17/19 15/34/45 13/33/46 30/16/20
s 3
f 6/35/47 15/34/48 31/17/28 32/19/27
f 24/36/49 6/35/47 32/19/27 33/25/35
f 20/37/50 24/36/49 33/25/35 34/11/11
f 35/12/10 4/38/51 20/37/50 34/11/11
s 1
f 9/39/52 4/38/53 35/12/21 36/3/3
f 25/4/2 3/27/54 9/39/52 36/3/3
