# This file uses centimeters as units for non-parametric coordinates.

mtllib Room_ChestMesh.mtl
g default
v 0.836922 0.772527 10.935074
v 0.836700 0.873652 10.899893
v 0.836291 0.958954 10.835188
v 0.835736 1.020087 10.747288
v 0.835088 1.051063 10.644792
v 0.835176 0.375195 10.658751
v 0.835815 0.410377 10.759873
v 0.836354 0.475087 10.845178
v 0.836741 0.562990 10.906309
v 0.836937 0.665480 10.937278
v -0.129124 0.772527 10.941169
v -0.129347 0.873652 10.905987
v -0.129756 0.958955 10.841283
v -0.130311 1.020087 10.753378
v -0.130959 1.051063 10.650893
v -0.130871 0.375196 10.664848
v -0.130232 0.410377 10.765968
v -0.129692 0.475087 10.851273
v -0.129306 0.562990 10.912407
v -0.129110 0.665480 10.943383
v 0.834794 0.712023 10.598246
v -0.131253 0.712023 10.604347
v 0.854513 0.775917 10.953838
v 0.854278 0.882707 10.916679
v -0.146711 0.882708 10.922997
v -0.146476 0.775917 10.960151
v 0.853846 0.972790 10.848348
v -0.147143 0.972790 10.854664
v 0.853259 1.037346 10.755521
v -0.147730 1.037346 10.761843
v 0.848082 1.063478 10.648465
v -0.143905 1.063478 10.654731
v 0.852668 0.356324 10.662024
v -0.148321 0.356324 10.668344
v 0.853344 0.393477 10.768818
v -0.147646 0.393477 10.775134
v 0.853913 0.461812 10.858902
v -0.147076 0.461812 10.865214
v 0.854321 0.554640 10.923454
v -0.146668 0.554639 10.929774
v 0.854528 0.662872 10.956168
v -0.146461 0.662873 10.962487
v 0.860733 0.712023 10.598095
v -0.157193 0.712023 10.604511
v -0.142833 0.357151 10.559484
v 0.845805 0.357152 10.553243
v 0.834499 0.372985 10.551706
v -0.131548 0.372984 10.557805
v 0.840152 0.356747 10.552475
v -0.140177 0.356747 10.558664
v 0.832258 0.014532 10.197001
v 0.834421 0.014532 10.539214
v -0.131627 0.014532 10.545304
v -0.133789 0.014532 10.203092
v 0.834421 0.356342 10.539218
v 0.832258 0.356342 10.197001
v -0.133789 0.356342 10.203095
v -0.131627 0.356342 10.545308
v 0.850599 -0.003810 10.196881
v 0.849491 -0.000444 10.554091
v -0.146508 -0.000444 10.560378
v -0.152131 -0.003810 10.203212
v 0.819475 0.014532 9.854848
v 0.830162 0.014532 9.865404
v 0.819468 0.356342 9.854852
v 0.830162 0.356342 9.865416
v -0.135885 0.014532 9.871503
v -0.125333 0.014532 9.860817
v -0.135885 0.356342 9.871511
v -0.125326 0.356342 9.860821
v 0.845143 -0.000545 9.850332
v 0.834357 -0.000444 9.839782
v -0.140404 -0.000444 9.845936
v -0.151056 -0.000545 9.856618
v 0.853277 0.356342 10.196863
v 0.858093 0.351423 10.196833
v 0.838833 0.356342 9.856881
v 0.843461 0.351421 9.852324
v -0.159625 0.351423 10.203264
v -0.154808 0.356342 10.203231
v 0.832382 0.351421 9.841771
v 0.827517 0.356342 9.846704
v -0.133478 0.356342 9.852770
v -0.138404 0.351421 9.847902
v -0.149349 0.351421 9.858592
v -0.144664 0.356342 9.863093
v 0.349244 0.014532 10.201354
vt 0.772460 0.951275
vt 0.816288 0.966925
vt 0.281934 0.510034
vt 0.234994 0.509506
vt 0.862817 0.968112
vt 0.326373 0.525515
vt 0.907664 0.954617
vt 0.363716 0.554223
vt 0.943877 0.926398
vt 0.387460 0.593730
vt 0.744883 0.019724
vt 0.713677 0.749061
vt 0.109929 0.679409
vt 0.125269 0.722140
vt 0.698478 0.793185
vt 0.109943 0.632473
vt 0.697175 0.839702
vt 0.124549 0.588316
vt 0.709847 0.884335
vt 0.152253 0.550576
vt 0.735886 0.922795
vt 0.190321 0.523608
vt 0.843344 0.822073
vt 0.255800 0.655971
vt 0.978639 0.756425
vt 0.358107 0.766021
vt 0.384771 0.730213
vt 0.989903 0.799379
vt 0.398964 0.688253
vt 0.987327 0.843559
vt 0.399164 0.643193
vt 0.971606 0.884732
vt 0.385293 0.601007
vt 0.736455 0.378551
vt 0.750988 0.714759
vt 0.436106 0.010855
vt 0.157712 0.760633
vt 0.787893 0.688377
vt 0.192701 0.787939
vt 0.831287 0.675052
vt 0.234549 0.803182
vt 0.876463 0.676132
vt 0.279061 0.804299
vt 0.918540 0.691292
vt 0.321651 0.791331
vt 0.954308 0.719029
vt 0.851069 0.814901
vt 0.260382 0.665356
vt 0.708161 0.586951
vt 0.423127 0.708992
vt 0.427745 0.426554
vt 0.425009 0.582921
vt 0.743500 0.269155
vt 0.710373 0.399553
vt 0.428346 0.193637
vt 0.426132 0.520097
vt 0.423565 0.677646
vt 0.424483 0.614437
vt 0.742963 0.304424
vt 0.744642 0.197570
vt 0.708830 0.524149
vt 0.426697 0.488786
vt 0.425566 0.551442
vt 0.708502 0.555476
vt 0.133084 0.723551
vt 0.424002 0.646138
vt 0.432472 0.015785
vt 0.706499 0.712975
vt 0.741376 0.014724
vt 0.742334 0.713804
vt 0.709932 0.430682
vt 0.709527 0.461776
vt 0.428022 0.229580
vt 0.706949 0.681644
vt 0.707397 0.650155
vt 0.744083 0.233478
vt 0.428722 0.157663
vt 0.745155 0.161609
vt 0.429141 0.121761
vt 0.745616 0.125620
vt 0.429590 0.085932
vt 0.746032 0.089712
vt 0.430062 0.050082
vt 0.746431 0.054028
vt 0.427042 0.336208
vt 0.428068 0.370753
vt 0.428220 0.395431
vt 0.432105 0.374858
vt 0.742471 0.340061
vt 0.740592 0.374611
vt 0.943595 0.918890
vt 0.707801 0.618433
vt 0.427403 0.300731
vt 0.427725 0.265262
vt 0.709169 0.492877
vt 0.427238 0.457661
vt 0.645681 0.864245
vt 0.634158 0.972386
vt 0.526874 0.962185
vt 0.534584 0.856570
vt 0.532757 0.753608
vt 0.647382 0.742354
vt 0.883075 0.335408
vt 0.768202 0.327151
vt 0.789407 0.010514
vt 0.904211 0.017082
vt 0.117431 0.866817
vt 0.114870 0.969041
vt 0.010209 0.965894
vt 0.012122 0.863611
vt 0.122931 0.761690
vt 0.016892 0.756482
vt 0.502445 0.734888
vt 0.505700 0.736556
vt 0.495658 0.977052
vt 0.492258 0.978951
vt 0.214509 0.012623
vt 0.210466 0.112211
vt 0.111490 0.110238
vt 0.114201 0.009985
vt 0.312406 0.017035
vt 0.305171 0.115080
vt 0.403857 0.386546
vt 0.306093 0.385262
vt 0.307265 0.118556
vt 0.403546 0.118377
vt 0.211325 0.490695
vt 0.209185 0.390463
vt 0.303879 0.388719
vt 0.309822 0.487525
vt 0.110299 0.492055
vt 0.108660 0.390879
vt 0.012282 0.109472
vt 0.010097 0.389898
vt 0.654877 0.865746
vt 0.636546 0.972290
vt 0.647942 0.865031
vt 0.649942 0.741319
vt 0.653326 0.748660
vt 0.787075 0.017056
vt 0.766079 0.320164
vt 0.763730 0.313574
vt 0.784377 0.022940
vt 0.125663 0.866562
vt 0.119674 0.964858
vt 0.116925 0.967726
vt 0.119459 0.866764
vt 0.125487 0.765533
vt 0.208023 0.251260
vt 0.404667 0.114053
vt 0.661925 0.738995
vt 0.653059 0.730517
vt 0.402854 0.390938
vt 0.122889 0.968364
vt 0.119146 0.972173
vt 0.646839 0.735828
vt 0.532229 0.749438
vt 0.114918 0.973609
vt 0.010097 0.970232
vt 0.403552 0.976408
vt 0.413803 0.729763
vn 0.006209 0.176805 0.984226
vn 0.005561 0.472302 0.881419
vn 0.005561 0.472303 0.881419
vn 0.006209 0.176805 0.984226
vn 0.004370 0.721554 0.692344
vn 0.004370 0.721555 0.692343
vn 0.002625 0.909486 0.415727
vn 0.002625 0.909486 0.415726
vn 0.001497 0.971492 0.237068
vn 0.001497 0.971492 0.237068
vn -0.000048 -0.999971 -0.007606
vn 0.001071 -0.985480 0.169786
vn 0.001071 -0.985481 0.169784
vn -0.000048 -0.999971 -0.007606
vn 0.002980 -0.881446 0.472275
vn 0.002980 -0.881447 0.472273
vn 0.004552 -0.692358 0.721540
vn 0.004552 -0.692360 0.721538
vn 0.005681 -0.435503 0.900170
vn 0.005681 -0.435503 0.900169
vn 0.006252 -0.136021 0.990686
vn 0.006252 -0.136021 0.990686
vn 0.999836 0.011065 0.014330
vn 0.999851 0.004141 0.016738
vn 0.999999 -0.001201 -0.000266
vn 0.999808 0.016905 0.009900
vn 0.999441 0.030055 -0.014660
vn 0.998412 0.041413 -0.038179
vn 0.999160 -0.028028 -0.029902
vn 0.997423 -0.033971 -0.063188
vn 0.999776 -0.020650 0.004744
vn 0.999812 -0.016220 0.010585
vn 0.999839 -0.010203 0.014770
vn 0.999852 -0.003188 0.016890
vn -0.999560 0.004142 0.029376
vn -0.999575 0.011064 0.026968
vn -0.999923 -0.001201 0.012374
vn -0.999603 0.016904 0.022538
vn -0.999546 0.030055 -0.002026
vn -0.998815 0.041415 -0.025559
vn -0.998142 -0.033974 -0.050579
vn -0.999458 -0.028028 -0.017269
vn -0.999636 -0.020649 0.017383
vn -0.999599 -0.016220 0.023222
vn -0.999572 -0.010203 0.027407
vn -0.999559 -0.003186 0.029527
vn -0.006212 -0.176789 -0.984229
vn -0.006212 -0.176789 -0.984229
vn -0.005561 -0.472281 -0.881430
vn -0.005561 -0.472281 -0.881431
vn -0.004367 -0.721554 -0.692344
vn -0.004367 -0.721553 -0.692345
vn -0.002747 -0.900195 -0.435478
vn -0.002747 -0.900194 -0.435480
vn -0.001826 -0.957237 -0.289299
vn -0.001826 -0.957237 -0.289299
vn -0.000130 0.999787 -0.020650
vn -0.000130 0.999787 -0.020650
vn -0.001115 0.984247 -0.176794
vn -0.001115 0.984247 -0.176796
vn -0.002980 0.881443 -0.472281
vn -0.002980 0.881442 -0.472283
vn -0.004553 0.692366 -0.721532
vn -0.004553 0.692365 -0.721533
vn -0.005683 0.435490 -0.900176
vn -0.005683 0.435490 -0.900176
vn -0.006256 0.135998 -0.990690
vn -0.006256 0.135998 -0.990690
vn -0.999980 0.000002 0.006319
vn -0.999980 0.000000 0.006320
vn -0.999980 -0.000001 0.006320
vn -0.999980 0.000000 0.006321
vn -0.999980 -0.000000 0.006320
vn -0.999980 0.000002 0.006317
vn -0.999980 -0.000001 0.006322
vn -0.999980 0.000000 0.006325
vn -0.999980 -0.000000 0.006319
vn -0.999980 0.000001 0.006321
vn -0.999980 0.000001 0.006321
vn -0.999980 -0.000001 0.006320
vn 0.999980 -0.000001 -0.006321
vn 0.999980 -0.000000 -0.006321
vn 0.999980 -0.000000 -0.006321
vn 0.999980 -0.000000 -0.006321
vn 0.999980 -0.000001 -0.006321
vn 0.999980 -0.000000 -0.006321
vn 0.999980 0.000000 -0.006322
vn 0.999980 0.000000 -0.006321
vn 0.999980 0.000000 -0.006321
vn 0.999980 0.000001 -0.006321
vn 0.999980 0.000001 -0.006320
vn 0.999980 -0.000001 -0.006321
vn 0.011754 0.237987 -0.971197
vn -0.023929 0.237992 -0.970972
vn -0.024680 0.235803 -0.971488
vn 0.012503 0.235798 -0.971722
vn 0.067654 0.133992 -0.988670
vn 0.067618 0.134001 -0.988672
vn 0.091150 0.128067 -0.987568
vn 0.091150 0.128067 -0.987568
vn -0.079881 0.134000 -0.987757
vn -0.079847 0.134008 -0.987758
vn -0.103371 0.128067 -0.986364
vn -0.103371 0.128067 -0.986364
vn -0.006281 -0.101036 -0.994863
vn -0.006281 -0.101036 -0.994863
vn -0.006281 -0.101036 -0.994863
vn -0.006281 -0.101036 -0.994863
vn 0.999996 -0.002615 -0.000544
vn 0.999641 0.002651 0.026681
vn 0.999641 0.002651 0.026681
vn 0.999996 -0.002640 -0.000673
vn 0.999544 -0.008135 -0.029095
vn 0.999544 -0.008135 -0.029095
vn -0.006314 0.005621 -0.999964
vn -0.006314 0.005621 -0.999964
vn -0.006314 0.005621 -0.999964
vn -0.006314 0.005621 -0.999964
vn -0.999939 -0.004765 0.009979
vn -0.999831 -0.008134 -0.016457
vn -0.999832 -0.008134 -0.016457
vn -0.999940 -0.004780 0.009858
vn -0.999380 -0.001549 0.035182
vn -0.999380 -0.001549 0.035182
vn -0.000192 0.999537 -0.030430
vn -0.006296 0.049088 -0.998775
vn -0.006295 0.053398 -0.998554
vn -0.000192 0.999537 -0.030430
vn -0.999980 -0.000000 0.006321
vn -0.999980 -0.000000 0.006321
vn -0.999980 -0.000000 0.006321
vn -0.999980 -0.000000 0.006321
vn -0.999980 0.000000 0.006320
vn -0.999980 0.000000 0.006320
vn 0.006317 -0.000011 0.999980
vn 0.006317 -0.000011 0.999980
vn 0.006317 -0.000011 0.999980
vn 0.006317 -0.000011 0.999980
vn 0.999980 0.000000 -0.006321
vn 0.999980 0.000000 -0.006321
vn 0.999980 0.000000 -0.006321
vn 0.999980 0.000000 -0.006321
vn 0.999980 0.000000 -0.006320
vn 0.999980 0.000000 -0.006320
vn -0.006304 0.000011 -0.999980
vn -0.006304 0.000011 -0.999980
vn -0.007131 0.999975 -0.000393
vn -0.014740 0.999891 -0.000812
vn -0.014740 0.999891 -0.000812
vn -0.007111 0.999975 -0.000392
vn 0.000000 1.000000 0.000000
vn 0.000000 1.000000 0.000000
vn 0.000000 1.000000 0.000002
vn 0.000000 1.000000 0.000002
vn 0.000000 1.000000 0.000002
vn 0.000000 1.000000 0.000002
vn 0.006762 0.999977 -0.000458
vn 0.000000 1.000000 0.000000
vn 0.000000 1.000000 0.000000
vn 0.006766 0.999977 -0.000459
vn 0.013274 0.999911 -0.000900
vn 0.013274 0.999911 -0.000900
vn 0.000000 1.000000 -0.000000
vn 0.000000 1.000000 -0.000000
vn 0.000000 1.000000 -0.000000
vn -0.702749 -0.000023 0.711438
vn -0.702749 -0.000023 0.711438
vn -0.702749 -0.000023 0.711438
vn -0.702749 -0.000023 0.711438
vn 0.711517 -0.000021 0.702669
vn 0.711517 -0.000021 0.702669
vn 0.711517 -0.000021 0.702669
vn 0.711517 -0.000021 0.702669
vn 0.694451 0.007678 -0.719499
vn 0.694451 0.007678 -0.719499
vn 0.694451 0.007678 -0.719499
vn 0.694451 0.007678 -0.719499
vn -0.703387 0.007685 -0.710766
vn -0.703387 0.007685 -0.710766
vn -0.703387 0.007685 -0.710766
vn -0.703387 0.007685 -0.710766
vn 0.006311 0.004688 0.999969
vn 0.006311 0.004688 0.999969
vn 0.006311 0.004688 0.999969
vn 0.006311 0.004688 0.999969
vn 0.714363 0.699308 0.025569
vn 0.714396 0.699649 -0.011437
vn 0.714399 0.699650 -0.011185
vn 0.714035 0.699453 -0.030332
vn 0.714035 0.699453 -0.030332
vn 0.401855 0.806250 -0.434135
vn 0.401855 0.806250 -0.434135
vn 0.007905 0.711319 -0.702825
vn 0.000852 0.708097 -0.706115
vn -0.714134 0.699424 0.028601
vn -0.714486 0.699637 -0.004258
vn -0.714486 0.699636 -0.004385
vn -0.714365 0.699449 -0.021304
vn -0.714365 0.699449 -0.021304
vn -0.016783 0.711320 -0.702668
vn -0.009769 0.708096 -0.706048
vn -0.407329 0.806241 -0.429021
vn -0.407329 0.806241 -0.429021
vn 0.000000 1.000000 -0.000000
vn 0.000000 1.000000 -0.000000
vn 0.000000 1.000000 0.000000
vn 0.000000 1.000000 -0.000000
vn 0.000000 1.000000 -0.000000
vn 0.000000 1.000000 0.000000
s 1
g polySurface13
usemtl lambert2SG
f 23/76/1 24/53/2 25/94/3 26/73/4
f 24/53/2 27/59/5 28/93/6 25/94/3
f 27/59/5 29/89/7 30/85/8 28/93/6
f 29/89/7 31/90/9 32/86/10 30/85/8
f 46/11/11 33/84/12 34/83/13 45/67/14
f 33/84/12 35/82/15 36/81/16 34/83/13
f 35/82/15 37/80/17 38/79/18 36/81/16
f 37/80/17 39/78/19 40/77/20 38/79/18
f 39/78/19 41/60/21 42/55/22 40/77/20
f 41/60/21 23/76/1 26/73/4 42/55/22
s 3
f 24/2/23 23/1/24 43/23/25
f 27/5/26 24/2/23 43/23/25
f 29/7/27 27/5/26 43/23/25
f 31/9/28 29/7/27 43/23/25
f 33/12/29 46/70/30 43/23/25
f 35/15/31 33/12/29 43/23/25
f 37/17/32 35/15/31 43/23/25
f 39/19/33 37/17/32 43/23/25
f 41/21/34 39/19/33 43/23/25
f 23/1/24 41/21/34 43/23/25
s 5
f 26/4/35 25/3/36 44/24/37
f 25/3/36 28/6/38 44/24/37
f 28/6/38 30/8/39 44/24/37
f 30/8/39 32/10/40 44/24/37
f 45/14/41 34/13/42 44/24/37
f 34/13/42 36/16/43 44/24/37
f 36/16/43 38/18/44 44/24/37
f 38/18/44 40/20/45 44/24/37
f 40/20/45 42/22/46 44/24/37
f 42/22/46 26/4/35 44/24/37
s 7
f 1/61/47 11/56/48 12/62/49 2/95/50
f 2/95/50 12/62/49 13/96/51 3/72/52
f 3/72/52 13/96/51 14/51/53 4/71/54
f 4/71/54 14/51/53 15/87/55 5/54/56
f 47/68/57 48/50/58 16/57/59 6/74/60
f 6/74/60 16/57/59 17/66/61 7/75/62
f 7/75/62 17/66/61 18/58/63 8/92/64
f 8/92/64 18/58/63 19/52/65 9/49/66
f 9/49/66 19/52/65 20/63/67 10/64/68
f 10/64/68 20/63/67 11/56/48 1/61/47
s 9
f 2/28/69 21/47/70 1/25/71
f 3/30/72 21/47/70 2/28/69
f 4/32/73 21/47/70 3/30/72
f 5/91/74 21/47/70 4/32/73
f 6/38/75 21/47/70 47/35/76
f 7/40/77 21/47/70 6/38/75
f 8/42/78 21/47/70 7/40/77
f 9/44/79 21/47/70 8/42/78
f 10/46/80 21/47/70 9/44/79
f 1/25/71 21/47/70 10/46/80
s 11
f 11/26/81 22/48/82 12/27/83
f 12/27/83 22/48/82 13/29/84
f 13/29/84 22/48/82 14/31/85
f 14/31/85 22/48/82 15/33/86
f 48/65/87 22/48/82 16/37/88
f 16/37/88 22/48/82 17/39/89
f 17/39/89 22/48/82 18/41/90
f 18/41/90 22/48/82 19/43/91
f 19/43/91 22/48/82 20/45/92
f 20/45/92 22/48/82 11/26/81
s 13
f 5/34/93 15/88/94 32/86/95 31/90/96
f 21/47/97 5/91/93 31/9/96 43/23/98
f 47/35/99 21/47/97 43/23/98 46/70/100
f 15/33/94 22/48/101 44/24/102 32/10/95
f 22/48/101 48/65/103 45/14/104 44/24/102
s off
f 45/67/105 48/36/106 47/69/107 46/11/108
s 14
f 76/97/109 49/98/110 60/99/111 59/100/112
f 71/101/113 78/102/114 76/97/109 59/100/112
s off
f 73/103/115 84/104/116 81/105/117 72/106/118
s 15
f 79/107/119 85/108/120 74/109/121 62/110/122
f 50/111/123 79/107/119 62/110/122 61/112/124
s 16
f 49/113/125 55/114/126 58/115/127 50/116/128
s 17
f 56/117/129 51/118/130 52/119/131 55/120/132
f 66/121/133 64/122/134 51/118/130 56/117/129
s off
f 70/123/135 68/124/136 63/125/137 65/126/138
s 18
f 57/127/139 54/128/140 67/129/141 69/130/142
f 58/131/143 53/132/144 54/128/140 57/127/139
s 16
f 55/133/126 52/119/145 53/132/146 58/134/127
s 19
f 56/135/147 55/136/148 49/98/149 75/137/150
f 75/137/150 77/138/151 66/139/152 56/135/147
f 82/140/153 83/141/154 70/142/155 65/143/156
f 57/144/157 69/145/158 86/146/159 80/147/160
f 58/148/161 57/144/157 80/147/160 50/111/162
s 21
f 51/118/163 87/149/164 52/119/165
s off
f 63/125/166 64/122/167 66/150/168 65/126/169
s 19
f 65/151/156 66/139/152 77/138/151 82/152/153
s off
f 67/129/170 68/124/171 70/123/172 69/153/173
s 19
f 69/145/158 70/154/155 83/155/154 86/146/159
s off
f 81/156/174 78/102/175 71/101/176 72/157/177
f 85/108/178 84/158/179 73/159/180 74/109/181
f 49/113/182 50/116/183 61/160/184 60/161/185
s 22
f 49/98/186 76/97/187 75/137/188
f 75/137/188 76/97/187 78/102/189 77/138/190
s 23
f 77/138/191 78/102/192 81/156/193 82/152/194
s 24
f 50/111/195 80/147/196 79/107/197
f 79/107/197 80/147/196 86/146/198 85/108/199
s 23
f 82/140/194 81/105/193 84/104/200 83/141/201
f 83/155/201 84/158/200 85/108/202 86/146/203
s 21
f 68/124/204 67/129/205 87/149/164
f 87/149/164 67/129/205 54/128/206
f 87/149/164 54/128/206 53/132/207
f 87/149/164 53/132/207 52/119/165
f 64/122/208 87/149/164 51/118/163
f 63/125/209 87/149/164 64/122/208
f 68/124/204 87/149/164 63/125/209
