# This file uses centimeters as units for non-parametric coordinates.

mtllib Plank Mesh.mtl
g default
v -3.470097 0.000000 -0.834122
v 0.069118 0.000000 -0.834122
v -3.470097 0.080912 -0.834122
v 0.069118 0.080912 -0.834122
v -3.470097 0.080912 -1.519787
v 0.069118 0.080912 -1.519787
v -3.470097 0.000000 -1.519787
v 0.069118 0.000000 -1.519787
v -3.380765 0.000000 -0.236406
v 0.000000 0.000000 0.000000
v -3.381468 0.076822 -0.226363
v -0.000702 0.076822 0.010043
v -3.336056 0.162138 -0.875778
v 0.044709 0.162138 -0.639372
v -3.335354 0.085317 -0.885821
v 0.045412 0.085317 -0.649415
vt 0.007615 0.784949
vt 0.971070 0.962790
vt 0.971070 0.785125
vt 0.028931 0.785125
vt 0.971070 0.962790
vt 0.028931 0.962790
vt 0.992385 0.962966
vt 0.028931 0.785125
vt 0.971064 0.984189
vt 0.971070 0.785125
vt 0.971064 0.763727
vt 0.992373 0.784951
vt 0.028936 0.984189
vt 0.007628 0.962965
vt 0.028936 0.763727
vt 0.028931 0.962790
vt 0.028936 0.763727
vt 0.971064 0.763727
vt 0.971070 0.785125
vt 0.028931 0.785125
vt 0.971070 0.962790
vt 0.028931 0.962790
vt 0.971064 0.984189
vt 0.028936 0.984189
vt 0.028931 0.785125
vt 0.971070 0.785125
vt 0.971070 0.962790
vt 0.028931 0.962790
vt 0.992373 0.784951
vt 0.992385 0.962966
vt 0.007628 0.962965
vt 0.007615 0.784949
vn 0.000000 0.000000 1.000000
vn 0.000000 0.000000 1.000000
vn 0.000000 0.000000 1.000000
vn 0.000000 0.000000 1.000000
vn -0.000000 1.000000 0.000000
vn -0.000000 1.000000 0.000000
vn -0.000000 1.000000 0.000000
vn -0.000000 1.000000 0.000000
vn 0.000000 0.000000 -1.000000
vn 0.000000 0.000000 -1.000000
vn 0.000000 0.000000 -1.000000
vn 0.000000 0.000000 -1.000000
vn 0.000000 -1.000000 0.000000
vn 0.000000 -1.000000 0.000000
vn 0.000000 -1.000000 0.000000
vn 0.000000 -1.000000 0.000000
vn 1.000000 0.000000 0.000000
vn 1.000000 0.000000 0.000000
vn 1.000000 0.000000 0.000000
vn 1.000000 0.000000 0.000000
vn -1.000000 0.000000 0.000000
vn -1.000000 0.000000 0.000000
vn -1.000000 0.000000 0.000000
vn -1.000000 0.000000 0.000000
vn -0.069165 -0.129945 0.989106
vn -0.069165 -0.129945 0.989106
vn -0.069165 -0.129945 0.989106
vn -0.069165 -0.129945 0.989106
vn -0.009064 0.991521 0.129627
vn -0.009064 0.991522 0.129627
vn -0.009064 0.991521 0.129627
vn -0.009064 0.991522 0.129627
vn 0.069165 0.129945 -0.989106
vn 0.069165 0.129945 -0.989106
vn 0.069165 0.129945 -0.989106
vn 0.069165 0.129945 -0.989106
vn 0.009064 -0.991522 -0.129627
vn 0.009064 -0.991521 -0.129627
vn 0.009064 -0.991522 -0.129627
vn 0.009064 -0.991521 -0.129627
vn 0.997564 0.000002 0.069757
vn 0.997564 0.000002 0.069757
vn 0.997564 0.000002 0.069757
vn 0.997564 0.000002 0.069757
vn -0.997564 0.000004 -0.069757
vn -0.997564 0.000004 -0.069757
vn -0.997564 0.000004 -0.069757
vn -0.997564 0.000004 -0.069757
s off
g polySurface1
usemtl initialShadingGroup
f 1/15/1 2/11/2 4/3/3 3/4/4
f 3/4/5 4/3/6 6/5/7 5/6/8
f 5/6/9 6/5/10 8/9/11 7/13/12
f 7/8/13 8/10/14 2/2/15 1/16/16
f 2/12/17 8/7/18 6/5/19 4/3/20
f 7/14/21 1/1/22 3/4/23 5/6/24
f 9/17/25 10/18/26 12/19/27 11/20/28
f 11/20/29 12/19/30 14/21/31 13/22/32
f 13/22/33 14/21/34 16/23/35 15/24/36
f 15/25/37 16/26/38 10/27/39 9/28/40
f 10/29/41 16/30/42 14/21/43 12/19/44
f 15/31/45 9/32/46 11/20/47 13/22/48
