# This file uses centimeters as units for non-parametric coordinates.

mtllib Sewer_Lamps.mtl
g default
v -2.114109 -0.253359 0.628969
v -2.084574 -0.303245 0.651484
v -2.048463 -0.250189 0.687830
v 2.084574 -0.303245 0.651484
v 2.114109 -0.253359 0.628969
v 2.048463 -0.250189 0.687830
v -1.751916 0.303245 0.416567
v -1.836176 0.253359 0.432699
v -1.774007 0.250189 0.494015
v 1.836176 0.253359 0.432699
v 1.751916 0.303245 0.416567
v 1.774007 0.250189 0.494015
v -1.774007 0.250189 -0.804032
v -1.836176 0.253359 -0.742716
v -1.751916 0.303245 -0.726585
v 1.836176 0.253359 -0.742716
v 1.774007 0.250189 -0.804032
v 1.751916 0.303245 -0.726585
v -2.084574 -0.303245 -0.961501
v -2.114109 -0.253359 -0.938986
v -2.048463 -0.250189 -0.997847
v 2.114109 -0.253359 -0.938986
v 2.084574 -0.303245 -0.961501
v 2.048463 -0.250189 -0.997847
v -1.972977 -0.303245 -0.871559
v 1.972977 -0.303245 -0.871559
v 1.972977 -0.303245 0.561542
v -1.972977 -0.303245 0.561542
v -1.724605 0.075320 -0.761841
v 1.724605 0.075320 -0.761841
v 1.724605 0.075320 0.451824
v -1.724605 0.075320 0.451824
vt 0.392448 0.894096
vt 0.981990 0.200592
vt 0.902222 0.216212
vt 0.459954 0.848244
vt 0.781541 0.316762
vt 0.840144 0.337260
vt 0.848212 0.741879
vt 0.787833 0.769913
vt 0.852090 0.751853
vt 0.587620 0.323055
vt 0.523562 0.308746
vt 0.789538 0.779979
vt 0.808986 0.172484
vt 0.868130 0.196850
vt 0.840291 0.329785
vt 0.780606 0.313032
vt 0.872739 0.187145
vt 0.812874 0.163165
vt 0.524754 0.312623
vt 0.587901 0.330919
vt 0.540683 0.158419
vt 0.517544 0.309226
vt 0.774918 0.313203
vt 0.803618 0.170280
vt 0.858956 0.739846
vt 0.599476 0.330367
vt 0.851088 0.337366
vt 0.631147 0.757558
vt 0.790891 0.178580
vt 0.508038 0.317415
vt 0.765525 0.320357
vt 0.527669 0.168104
vt 0.027361 0.930121
vt 0.027361 0.076944
vt 0.327566 0.076944
vt 0.327566 0.930120
vt 0.739323 0.142785
vt 0.670523 0.186348
vt 0.897111 0.736519
vt 0.976689 0.719359
vt 0.780756 0.773644
vt 0.770565 0.760873
vt 0.609485 0.182626
vt 0.621504 0.184733
vt 0.546580 0.160133
vt 0.557761 0.793975
vt 0.879481 0.199401
vt 0.619912 0.760440
vt 0.550407 0.798236
vt 0.538861 0.785153
vt 0.743765 0.834059
vt 0.674402 0.791222
vt 0.365998 0.201877
vt 0.436837 0.242600
vt 0.972599 0.450066
vt 0.894297 0.428869
vt 0.902018 0.486486
vt 0.980819 0.506379
vn 0.000000 -1.000000 0.000000
vn 0.000000 -1.000000 0.000000
vn 0.000000 -1.000000 0.000000
vn 0.000000 -1.000000 0.000000
vn 0.000000 0.361189 0.932493
vn 0.000000 0.361189 0.932493
vn 0.000000 0.361189 0.932493
vn 0.000000 0.361189 0.932493
vn -0.876772 0.480907 0.000000
vn -0.876772 0.480907 0.000000
vn -0.876772 0.480907 0.000000
vn -0.876772 0.480907 0.000000
vn 0.876772 0.480907 0.000000
vn 0.876772 0.480907 0.000000
vn 0.876772 0.480907 0.000000
vn 0.876772 0.480907 0.000000
vn 0.000000 0.361189 -0.932493
vn 0.000000 0.361189 -0.932493
vn 0.000000 0.361189 -0.932493
vn 0.000000 0.361189 -0.932493
vn -0.860498 -0.509453 0.000000
vn -0.860498 -0.509453 0.000000
vn -0.860498 -0.509453 0.000000
vn -0.860498 -0.509453 0.000000
vn 0.000000 -0.565159 0.824982
vn 0.000000 -0.565159 0.824982
vn 0.000000 -0.565159 0.824982
vn 0.000000 -0.565159 0.824982
vn -0.572261 0.549627 0.608628
vn -0.572261 0.549627 0.608628
vn -0.091926 0.804832 0.586340
vn -0.560020 0.795793 0.230414
vn 0.860498 -0.509453 0.000000
vn 0.860498 -0.509453 0.000000
vn 0.860498 -0.509453 0.000000
vn 0.860498 -0.509453 0.000000
vn 0.572260 0.549627 0.608628
vn 0.572260 0.549627 0.608628
vn 0.560020 0.795793 0.230413
vn 0.091926 0.804833 0.586340
vn -0.135112 0.882745 0.450007
vn -0.135112 0.882745 -0.450007
vn -0.560020 0.795793 -0.230414
vn 0.135112 0.882745 0.450007
vn 0.560020 0.795793 -0.230414
vn 0.135112 0.882745 -0.450007
vn -0.091926 0.804832 -0.586340
vn -0.572260 0.549627 -0.608629
vn -0.572260 0.549627 -0.608629
vn 0.091926 0.804832 -0.586340
vn 0.572260 0.549627 -0.608629
vn 0.572260 0.549627 -0.608629
vn 0.000000 -0.565159 -0.824982
vn 0.000000 -0.565159 -0.824982
vn 0.000000 -0.565159 -0.824982
vn 0.000000 -0.565159 -0.824982
vn -0.664929 -0.057579 0.744684
vn -0.664929 -0.057579 0.744684
vn -0.664929 -0.057579 0.744684
vn 0.664929 -0.057581 0.744684
vn 0.664929 -0.057581 0.744684
vn 0.664929 -0.057581 0.744684
vn -0.664927 -0.057581 -0.744686
vn -0.664927 -0.057581 -0.744686
vn -0.664927 -0.057581 -0.744686
vn 0.664927 -0.057583 -0.744685
vn 0.664927 -0.057583 -0.744685
vn 0.664927 -0.057583 -0.744685
vn 0.000000 -1.000000 0.000000
vn 0.000000 -1.000000 0.000000
vn 0.000000 -1.000000 0.000000
vn 0.000000 -1.000000 0.000000
vn 0.000000 -1.000000 0.000000
vn 0.000000 -1.000000 0.000000
vn 0.000000 -1.000000 0.000000
vn 0.000000 -1.000000 0.000000
vn 0.000000 -1.000000 -0.000000
vn 0.000000 -1.000000 -0.000000
vn 0.000000 -1.000000 -0.000000
vn 0.000000 -1.000000 -0.000000
vn 0.000000 -1.000000 0.000000
vn 0.000000 -1.000000 0.000000
vn 0.000000 -1.000000 0.000000
vn 0.000000 -1.000000 0.000000
vn 0.000000 -0.278369 0.960474
vn 0.000000 -0.278369 0.960474
vn 0.000000 -0.278369 0.960474
vn 0.000000 -0.278369 0.960474
vn -0.836111 -0.548561 0.000000
vn -0.836111 -0.548561 0.000000
vn -0.836111 -0.548561 0.000000
vn -0.836111 -0.548561 0.000000
vn 0.000000 -0.278369 -0.960474
vn 0.000000 -0.278369 -0.960474
vn 0.000000 -0.278369 -0.960474
vn 0.000000 -0.278369 -0.960474
vn 0.836111 -0.548561 0.000000
vn 0.836111 -0.548561 0.000000
vn 0.836111 -0.548561 0.000000
vn 0.836111 -0.548561 0.000000
s off
g Lamp
usemtl initialShadingGroup
f 29/33/1 30/34/2 31/35/3 32/36/4
f 6/5/5 12/6/6 9/7/7 3/8/8
f 8/43/9 14/10/10 20/11/11 1/45/12
f 22/13/13 16/14/14 10/15/15 5/16/16
f 17/48/17 24/46/18 21/19/19 13/20/20
f 2/21/21 1/45/22 20/11/23 19/22/24
f 3/8/25 2/41/26 4/23/27 6/5/28
s 1
f 1/12/29 3/8/30 9/7/31 8/9/32
s off
f 5/16/33 4/23/34 23/24/35 22/13/36
s 1
f 6/5/37 5/16/38 10/15/39 12/6/40
f 8/43/32 7/44/41 15/26/42 14/10/43
f 7/25/41 9/7/31 12/6/40 11/27/44
f 11/27/44 10/15/39 16/14/45 18/47/46
f 14/10/43 13/20/47 21/19/48 20/11/49
f 13/20/47 15/26/42 18/28/46 17/48/50
f 17/17/50 16/14/45 22/13/51 24/18/52
s off
f 19/22/53 21/19/54 24/46/55 23/49/56
f 1/12/57 2/41/58 3/8/59
f 4/23/60 5/16/61 6/5/62
s 1
f 7/25/41 8/9/32 9/7/31
f 10/15/39 11/27/44 12/6/40
f 13/20/47 14/10/43 15/26/42
f 16/14/45 17/17/50 18/47/46
s off
f 19/22/63 20/11/64 21/19/65
f 22/13/66 23/24/67 24/18/68
f 19/22/69 23/49/70 26/50/71 25/30/72
f 23/24/73 4/23/74 27/31/75 26/29/76
f 4/23/77 2/41/78 28/42/79 27/31/80
f 2/21/81 19/22/82 25/30/83 28/32/84
f 25/1/85 26/53/86 30/54/87 29/4/88
f 26/2/89 27/55/90 31/56/91 30/3/92
f 27/37/93 28/51/94 32/52/95 31/38/96
f 28/39/97 25/57/98 29/58/99 32/40/100
g default
v -1.521555 -0.184058 -0.549164
v -1.521555 -0.018713 -0.495440
v -1.521555 -0.018713 -0.321586
v -1.521555 -0.184058 -0.267862
v -1.521555 -0.286247 -0.408513
v 1.555592 -0.184058 -0.549164
v 1.555592 -0.018713 -0.495440
v 1.555592 -0.018713 -0.321586
v 1.555592 -0.184058 -0.267862
v 1.555592 -0.286247 -0.408513
v 1.599349 -0.176568 -0.515804
v 1.599349 -0.050440 -0.474822
v 1.599349 -0.050440 -0.342204
v 1.599349 -0.176568 -0.301222
v 1.599349 -0.254520 -0.408513
v 1.621439 -0.141707 -0.408513
v -1.581347 -0.174063 -0.504645
v -1.581347 -0.061053 -0.467926
v -1.581347 -0.061053 -0.349100
v -1.581347 -0.174063 -0.312381
v -1.581347 -0.243907 -0.408513
v -1.596020 -0.142828 -0.408513
v -1.521555 -0.184058 -0.082049
v -1.521555 -0.018713 -0.028325
v -1.521555 -0.018713 0.145529
v -1.521555 -0.184058 0.199253
v -1.521555 -0.286247 0.058602
v 1.555592 -0.184058 -0.082049
v 1.555592 -0.018713 -0.028325
v 1.555592 -0.018713 0.145529
v 1.555592 -0.184058 0.199253
v 1.555592 -0.286247 0.058602
v 1.599349 -0.176568 -0.048689
v 1.599349 -0.050440 -0.007707
v 1.599349 -0.050440 0.124911
v 1.599349 -0.176568 0.165893
v 1.599349 -0.254520 0.058602
v 1.621439 -0.141707 0.058602
v -1.581347 -0.174063 -0.037530
v -1.581347 -0.061053 -0.000811
v -1.581347 -0.061053 0.118015
v -1.581347 -0.174063 0.154734
v -1.581347 -0.243907 0.058602
v -1.596020 -0.142828 0.058602
vt 0.190237 0.896514
vt 0.319375 0.962912
vt 0.143397 0.140151
vt 0.186778 0.140984
vt 0.316714 0.898334
vt 0.274255 0.896517
vt 0.272652 0.140401
vt 0.317067 0.138619
vt 0.232315 0.896417
vt 0.229764 0.140454
vt 0.299371 0.080294
vt 0.190183 0.130849
vt 0.301577 0.125180
vt 0.268302 0.131287
vt 0.229557 0.124974
vt 0.266258 0.103231
vt 0.196644 0.910857
vt 0.165430 0.921433
vt 0.297038 0.916097
vt 0.266787 0.909410
vt 0.232432 0.915567
vt 0.200304 0.938143
vt 0.294301 0.955078
vt 0.148594 0.897972
vt 0.154172 0.121906
vt 0.317134 0.073467
vt 0.265114 0.934712
vt 0.192561 0.100442
vt 0.190237 0.896514
vt 0.148594 0.897972
vt 0.143397 0.140151
vt 0.186778 0.140984
vt 0.316714 0.898334
vt 0.274255 0.896517
vt 0.272652 0.140401
vt 0.317067 0.138619
vt 0.232315 0.896417
vt 0.229764 0.140454
vt 0.154172 0.121906
vt 0.190183 0.130849
vt 0.317134 0.073467
vt 0.301577 0.125180
vt 0.299371 0.080294
vt 0.268302 0.131287
vt 0.229557 0.124974
vt 0.192561 0.100442
vt 0.266258 0.103231
vt 0.196644 0.910857
vt 0.165430 0.921433
vt 0.319375 0.962912
vt 0.294301 0.955078
vt 0.297038 0.916097
vt 0.266787 0.909410
vt 0.232432 0.915567
vt 0.200304 0.938143
vt 0.265114 0.934712
vn 0.000000 0.309016 -0.951057
vn 0.000000 0.309016 -0.951057
vn 0.000000 0.309016 -0.951057
vn 0.000000 0.309016 -0.951057
vn 0.000000 0.309016 0.951057
vn 0.000000 0.309016 0.951057
vn 0.000000 0.309016 0.951057
vn 0.000000 0.309016 0.951057
vn 0.000000 -0.809017 0.587785
vn 0.000000 -0.809017 0.587785
vn 0.000000 -0.809017 0.587785
vn 0.000000 -0.809017 0.587785
vn 0.000000 -0.809017 -0.587785
vn 0.000000 -0.809017 -0.587785
vn 0.000000 -0.809017 -0.587785
vn 0.000000 -0.809017 -0.587785
vn 0.557869 0.256461 -0.789310
vn 0.557869 0.256461 -0.789310
vn 0.557869 0.256461 -0.789310
vn 0.557869 0.256461 -0.789310
vn 0.587011 0.809579 0.000000
vn 0.587011 0.809579 0.000000
vn 0.587011 0.809579 0.000000
vn 0.587011 0.809579 0.000000
vn 0.557868 0.256462 0.789310
vn 0.557868 0.256462 0.789310
vn 0.557868 0.256462 0.789310
vn 0.557868 0.256462 0.789310
vn 0.505974 -0.697817 0.506993
vn 0.505974 -0.697817 0.506993
vn 0.505974 -0.697817 0.506993
vn 0.505974 -0.697817 0.506993
vn 0.505975 -0.697816 -0.506993
vn 0.505975 -0.697816 -0.506993
vn 0.505975 -0.697816 -0.506993
vn 0.505975 -0.697816 -0.506993
vn 0.971935 0.072697 -0.223738
vn 0.971934 0.072697 -0.223738
vn 0.971935 0.072697 -0.223738
vn 0.971935 0.235252 0.000000
vn 0.971935 0.235252 0.000000
vn 0.971935 0.235252 0.000000
vn 0.971935 0.072696 0.223737
vn 0.971935 0.072696 0.223737
vn 0.971935 0.072696 0.223737
vn 0.971935 -0.190322 0.138277
vn 0.971935 -0.190322 0.138277
vn 0.971935 -0.190322 0.138277
vn 0.971935 -0.190322 -0.138277
vn 0.971935 -0.190322 -0.138277
vn 0.971935 -0.190322 -0.138277
vn -0.548783 0.258326 -0.795050
vn -0.548782 0.258326 -0.795051
vn -0.548783 0.258326 -0.795051
vn -0.548783 0.258326 -0.795051
vn -0.577902 0.816106 0.000000
vn -0.577902 0.816106 0.000000
vn -0.577902 0.816106 0.000000
vn -0.577902 0.816106 0.000000
vn -0.548783 0.258326 0.795050
vn -0.548783 0.258326 0.795050
vn -0.548783 0.258326 0.795050
vn -0.548783 0.258326 0.795050
vn -0.497091 -0.701983 0.510021
vn -0.497091 -0.701983 0.510021
vn -0.497091 -0.701983 0.510021
vn -0.497091 -0.701983 0.510021
vn -0.497091 -0.701982 -0.510021
vn -0.497091 -0.701982 -0.510021
vn -0.497091 -0.701982 -0.510021
vn -0.497091 -0.701982 -0.510021
vn -0.984280 0.054576 -0.167970
vn -0.984280 0.054576 -0.167970
vn -0.984280 0.054576 -0.167970
vn -0.984280 0.176614 0.000000
vn -0.984280 0.176614 0.000000
vn -0.984280 0.176614 0.000000
vn -0.984280 0.054575 0.167970
vn -0.984280 0.054575 0.167970
vn -0.984280 0.054575 0.167970
vn -0.984280 -0.142882 0.103811
vn -0.984280 -0.142882 0.103811
vn -0.984281 -0.142882 0.103811
vn -0.984280 -0.142885 -0.103811
vn -0.984280 -0.142885 -0.103811
vn -0.984280 -0.142885 -0.103811
vn 0.000000 0.309016 -0.951057
vn 0.000000 0.309016 -0.951057
vn 0.000000 0.309016 -0.951057
vn 0.000000 0.309016 -0.951057
vn 0.000000 0.309016 0.951057
vn 0.000000 0.309016 0.951057
vn 0.000000 0.309016 0.951057
vn 0.000000 0.309016 0.951057
vn 0.000000 -0.809017 0.587785
vn 0.000000 -0.809017 0.587785
vn 0.000000 -0.809017 0.587785
vn 0.000000 -0.809017 0.587785
vn 0.000000 -0.809017 -0.587785
vn 0.000000 -0.809017 -0.587785
vn 0.000000 -0.809017 -0.587785
vn 0.000000 -0.809017 -0.587785
vn 0.557869 0.256461 -0.789310
vn 0.557869 0.256461 -0.789310
vn 0.557869 0.256461 -0.789310
vn 0.557869 0.256461 -0.789310
vn 0.587012 0.809579 0.000000
vn 0.587012 0.809579 0.000000
vn 0.587012 0.809579 0.000000
vn 0.587012 0.809579 0.000000
vn 0.557868 0.256462 0.789310
vn 0.557868 0.256462 0.789310
vn 0.557868 0.256462 0.789310
vn 0.557868 0.256462 0.789310
vn 0.505975 -0.697816 0.506993
vn 0.505975 -0.697816 0.506993
vn 0.505975 -0.697816 0.506993
vn 0.505975 -0.697816 0.506993
vn 0.505975 -0.697816 -0.506993
vn 0.505975 -0.697816 -0.506993
vn 0.505975 -0.697816 -0.506993
vn 0.505975 -0.697816 -0.506993
vn 0.971935 0.072696 -0.223738
vn 0.971935 0.072696 -0.223738
vn 0.971935 0.072696 -0.223738
vn 0.971935 0.235250 0.000000
vn 0.971935 0.235250 0.000000
vn 0.971935 0.235250 0.000000
vn 0.971935 0.072696 0.223737
vn 0.971935 0.072696 0.223737
vn 0.971935 0.072696 0.223737
vn 0.971935 -0.190322 0.138277
vn 0.971935 -0.190322 0.138277
vn 0.971935 -0.190322 0.138277
vn 0.971935 -0.190322 -0.138277
vn 0.971935 -0.190322 -0.138277
vn 0.971935 -0.190322 -0.138277
vn -0.548782 0.258327 -0.795051
vn -0.548782 0.258327 -0.795051
vn -0.548782 0.258327 -0.795050
vn -0.548782 0.258327 -0.795051
vn -0.577903 0.816106 0.000000
vn -0.577903 0.816106 0.000000
vn -0.577903 0.816106 0.000000
vn -0.577903 0.816106 0.000000
vn -0.548783 0.258326 0.795050
vn -0.548783 0.258326 0.795050
vn -0.548783 0.258326 0.795050
vn -0.548783 0.258326 0.795050
vn -0.497091 -0.701982 0.510021
vn -0.497092 -0.701982 0.510021
vn -0.497091 -0.701982 0.510021
vn -0.497091 -0.701982 0.510021
vn -0.497090 -0.701983 -0.510020
vn -0.497090 -0.701983 -0.510020
vn -0.497090 -0.701983 -0.510020
vn -0.497090 -0.701983 -0.510020
vn -0.984280 0.054576 -0.167970
vn -0.984280 0.054576 -0.167970
vn -0.984280 0.054576 -0.167970
vn -0.984280 0.176614 0.000000
vn -0.984280 0.176614 0.000000
vn -0.984280 0.176614 0.000000
vn -0.984280 0.054578 0.167970
vn -0.984280 0.054578 0.167970
vn -0.984280 0.054578 0.167970
vn -0.984280 -0.142885 0.103811
vn -0.984280 -0.142885 0.103811
vn -0.984280 -0.142885 0.103811
vn -0.984280 -0.142882 -0.103811
vn -0.984280 -0.142882 -0.103811
vn -0.984281 -0.142882 -0.103811
s off
g Bulbs
usemtl initialShadingGroup
f 33/59/101 34/82/102 39/61/103 38/62/104
f 35/63/105 36/64/106 41/65/107 40/66/108
f 36/64/109 37/67/110 42/68/111 41/65/112
f 37/67/113 33/59/114 38/62/115 42/68/116
f 38/62/117 39/61/118 44/83/119 43/70/120
f 39/84/121 40/66/122 45/71/123 44/69/124
f 40/66/125 41/65/126 46/72/127 45/71/128
f 41/65/129 42/68/130 47/73/131 46/72/132
f 42/68/133 38/62/134 43/70/135 47/73/136
f 43/70/137 44/83/138 48/86/139
f 44/69/140 45/71/141 48/74/142
f 45/71/143 46/72/144 48/74/145
f 46/72/146 47/73/147 48/74/148
f 47/73/149 43/70/150 48/86/151
f 34/82/152 33/59/153 49/75/154 50/76/155
f 35/63/156 34/60/157 50/81/158 51/77/159
f 36/64/160 35/63/161 51/77/162 52/78/163
f 37/67/164 36/64/165 52/78/166 53/79/167
f 33/59/168 37/67/169 53/79/170 49/75/171
f 50/76/172 49/75/173 54/80/174
f 51/77/175 50/81/176 54/85/177
f 52/78/178 51/77/179 54/85/180
f 53/79/181 52/78/182 54/85/183
f 49/75/184 53/79/185 54/80/186
f 55/87/187 56/88/188 61/89/189 60/90/190
f 57/91/191 58/92/192 63/93/193 62/94/194
f 58/92/195 59/95/196 64/96/197 63/93/198
f 59/95/199 55/87/200 60/90/201 64/96/202
f 60/90/203 61/89/204 66/97/205 65/98/206
f 61/99/207 62/94/208 67/100/209 66/101/210
f 62/94/211 63/93/212 68/102/213 67/100/214
f 63/93/215 64/96/216 69/103/217 68/102/218
f 64/96/219 60/90/220 65/98/221 69/103/222
f 65/98/223 66/97/224 70/104/225
f 66/101/226 67/100/227 70/105/228
f 67/100/229 68/102/230 70/105/231
f 68/102/232 69/103/233 70/105/234
f 69/103/235 65/98/236 70/104/237
f 56/88/238 55/87/239 71/106/240 72/107/241
f 57/91/242 56/108/243 72/109/244 73/110/245
f 58/92/246 57/91/247 73/110/248 74/111/249
f 59/95/250 58/92/251 74/111/252 75/112/253
f 55/87/254 59/95/255 75/112/256 71/106/257
f 72/107/258 71/106/259 76/113/260
f 73/110/261 72/109/262 76/114/263
f 74/111/264 73/110/265 76/114/266
f 75/112/267 74/111/268 76/114/269
f 71/106/270 75/112/271 76/113/272
